<?xml version="1.0" encoding="UTF-8"?>
<svg version="1.1" xmlns="http://www.w3.org/2000/svg" width="150" height="150">
<path d="M0 0 C49.5 0 99 0 150 0 C150 49.5 150 99 150 150 C100.5 150 51 150 0 150 C0 100.5 0 51 0 0 Z " fill="#98E0E9" transform="translate(0,0)"/>
<path d="M0 0 C0.99 0 1.98 0 3 0 C3 0.66 3 1.32 3 2 C3.66 2 4.32 2 5 2 C5 3.32 5 4.64 5 6 C5.66 6 6.32 6 7 6 C7 6.66 7 7.32 7 8 C9.64 8 12.28 8 15 8 C15 7.01 15 6.02 15 5 C15.66 5 16.32 5 17 5 C17 4.01 17 3.02 17 2 C18.65 2 20.3 2 22 2 C22 2.66 22 3.32 22 4 C22.66 4 23.32 4 24 4 C24 13.24 24 22.48 24 32 C24.66 32 25.32 32 26 32 C26 32.99 26 33.98 26 35 C26.66 35 27.32 35 28 35 C28 36.32 28 37.64 28 39 C30.64 39 33.28 39 36 39 C36 39.66 36 40.32 36 41 C36.99 41 37.98 41 39 41 C39 41.66 39 42.32 39 43 C39.66 43 40.32 43 41 43 C41 43.66 41 44.32 41 45 C41.66 45 42.32 45 43 45 C43 45.66 43 46.32 43 47 C43.66 47 44.32 47 45 47 C45.495 49.97 45.495 49.97 46 53 C46.99 53 47.98 53 49 53 C51.67927341 57.01891012 51.15601248 59.24161923 51 64 C51.66 64 52.32 64 53 64 C53 65.98 53 67.96 53 70 C53.66 70 54.32 70 55 70 C55 70.66 55 71.32 55 72 C57.64 72 60.28 72 63 72 C63 71.34 63 70.68 63 70 C63.66 70 64.32 70 65 70 C65 69.34 65 68.68 65 68 C65.66 68 66.32 68 67 68 C67 64.7 67 61.4 67 58 C66.34 58 65.68 58 65 58 C64.87625 57.195625 64.7525 56.39125 64.625 55.5625 C64.315625 54.2940625 64.315625 54.2940625 64 53 C63.34 52.67 62.68 52.34 62 52 C62 51.34 62 50.68 62 50 C61.34 50 60.68 50 60 50 C60 49.01 60 48.02 60 47 C59.34 47 58.68 47 58 47 C58 45.02 58 43.04 58 41 C58.66 41 59.32 41 60 41 C60 40.34 60 39.68 60 39 C62.64 39 65.28 39 68 39 C68 39.66 68 40.32 68 41 C68.66 41 69.32 41 70 41 C70 41.66 70 42.32 70 43 C70.66 43 71.32 43 72 43 C72 43.66 72 44.32 72 45 C72.99 45 73.98 45 75 45 C75 47.64 75 50.28 75 53 C75.66 53 76.32 53 77 53 C77 58.28 77 63.56 77 69 C76.34 69 75.68 69 75 69 C75 70.98 75 72.96 75 75 C74.34 75 73.68 75 73 75 C73 75.66 73 76.32 73 77 C72.34 77 71.68 77 71 77 C71 77.66 71 78.32 71 79 C70.34 79 69.68 79 69 79 C69 80.32 69 81.64 69 83 C69.99 83 70.98 83 72 83 C72 81.68 72 80.36 72 79 C73.32 79 74.64 79 76 79 C76 78.34 76 77.68 76 77 C76.66 77 77.32 77 78 77 C78 77.66 78 78.32 78 79 C78.66 79 79.32 79 80 79 C80 80.32 80 81.64 80 83 C80.66 83 81.32 83 82 83 C82 81.68 82 80.36 82 79 C82.66 79 83.32 79 84 79 C84 79.66 84 80.32 84 81 C84.66 81 85.32 81 86 81 C86 81.66 86 82.32 86 83 C86.66 83 87.32 83 88 83 C88.33 81.68 88.66 80.36 89 79 C89 86.92 89 94.84 89 103 C39.5 103 -10 103 -61 103 C-61 83 -61 83 -60 79 C-59.34 79 -58.68 79 -58 79 C-58 80.32 -58 81.64 -58 83 C-57.34 83 -56.68 83 -56 83 C-56 82.34 -56 81.68 -56 81 C-54.68 81.33 -53.36 81.66 -52 82 C-51.54625 81.175 -51.0925 80.35 -50.625 79.5 C-49.820625 78.2625 -49.820625 78.2625 -49 77 C-48.34 77 -47.68 77 -47 77 C-46.34 78.98 -45.68 80.96 -45 83 C-44.34 83 -43.68 83 -43 83 C-43 81.68 -43 80.36 -43 79 C-42.34 79 -41.68 79 -41 79 C-41 80.32 -41 81.64 -41 83 C-40.34 83 -39.68 83 -39 83 C-39 81.68 -39 80.36 -39 79 C-38.01 79 -37.02 79 -36 79 C-36 80.32 -36 81.64 -36 83 C-34.35 83 -32.7 83 -31 83 C-31.33 81.68 -31.66 80.36 -32 79 C-31.34 79 -30.68 79 -30 79 C-30 80.32 -30 81.64 -30 83 C-29.34 83 -28.68 83 -28 83 C-28 82.34 -28 81.68 -28 81 C-27.34 81 -26.68 81 -26 81 C-26 81.66 -26 82.32 -26 83 C-24.35 83 -22.7 83 -21 83 C-21 81.68 -21 80.36 -21 79 C-20.34 79 -19.68 79 -19 79 C-19 80.32 -19 81.64 -19 83 C-18.34 83 -17.68 83 -17 83 C-17 82.34 -17 81.68 -17 81 C-16.34 81 -15.68 81 -15 81 C-15 81.66 -15 82.32 -15 83 C-13.68 83 -12.36 83 -11 83 C-11 82.34 -11 81.68 -11 81 C-10.34 81 -9.68 81 -9 81 C-9 80.34 -9 79.68 -9 79 C-7.68 79 -6.36 79 -5 79 C-4.67 80.32 -4.34 81.64 -4 83 C-2.68 83 -1.36 83 0 83 C0 83.66 0 84.32 0 85 C0.66 85 1.32 85 2 85 C1.67 83.68 1.34 82.36 1 81 C1.66 81 2.32 81 3 81 C3 81.66 3 82.32 3 83 C3.66 83 4.32 83 5 83 C5 82.34 5 81.68 5 81 C5.66 81 6.32 81 7 81 C7 81.66 7 82.32 7 83 C7.66 83 8.32 83 9 83 C9 82.34 9 81.68 9 81 C9.66 81 10.32 81 11 81 C11 81.66 11 82.32 11 83 C11.66 83 12.32 83 13 83 C13 81.68 13 80.36 13 79 C13.66 79 14.32 79 15 79 C15 77.02 15 75.04 15 73 C13.02 72.67 11.04 72.34 9 72 C9 74.31 9 76.62 9 79 C7.68 79 6.36 79 5 79 C5.33 76.36 5.66 73.72 6 71 C5.01 71 4.02 71 3 71 C3 70.01 3 69.02 3 68 C2.34 68 1.68 68 1 68 C1 70.97 1 73.94 1 77 C0.34 77 -0.32 77 -1 77 C-1 72.71 -1 68.42 -1 64 C-0.34 64 0.32 64 1 64 C1 62.68 1 61.36 1 60 C0.34 60 -0.32 60 -1 60 C-1 59.01 -1 58.02 -1 57 C-1.99 57 -2.98 57 -4 57 C-4 56.01 -4 55.02 -4 54 C-3.34 54 -2.68 54 -2 54 C-2 54.66 -2 55.32 -2 56 C-1.34 56 -0.68 56 0 56 C0 56.66 0 57.32 0 58 C1.65 58 3.3 58 5 58 C5.99 55.03 5.99 55.03 7 52 C8.98 52.495 8.98 52.495 11 53 C11 50.69 11 48.38 11 46 C9.68 46 8.36 46 7 46 C7 45.34 7 44.68 7 44 C7.66 44 8.32 44 9 44 C9 43.01 9 42.02 9 41 C8.34 41 7.68 41 7 41 C7 40.34 7 39.68 7 39 C6.34 39 5.68 39 5 39 C5 39.66 5 40.32 5 41 C4.01 41 3.02 41 2 41 C2 41.66 2 42.32 2 43 C1.34 43 0.68 43 0 43 C0 43.99 0 44.98 0 46 C-1.98 46.495 -1.98 46.495 -4 47 C-4 48.98 -4 50.96 -4 53 C-4.66 53 -5.32 53 -6 53 C-6 51.02 -6 49.04 -6 47 C-6.66 47 -7.32 47 -8 47 C-8 46.34 -8 45.68 -8 45 C-7.34 45 -6.68 45 -6 45 C-6 43.68 -6 42.36 -6 41 C-5.34 41 -4.68 41 -4 41 C-4 39.68 -4 38.36 -4 37 C-4.66 37 -5.32 37 -6 37 C-6 36.34 -6 35.68 -6 35 C-8.31 35 -10.62 35 -13 35 C-13 34.34 -13 33.68 -13 33 C-13.66 33 -14.32 33 -15 33 C-15 32.34 -15 31.68 -15 31 C-15.66 31 -16.32 31 -17 31 C-17 32.65 -17 34.3 -17 36 C-18.32 35.67 -19.64 35.34 -21 35 C-21 34.34 -21 33.68 -21 33 C-20.34 33 -19.68 33 -19 33 C-19.061875 32.21625 -19.12375 31.4325 -19.1875 30.625 C-19.0946875 29.325625 -19.0946875 29.325625 -19 28 C-18.01 27.34 -17.02 26.68 -16 26 C-16.495 26.495 -16.495 26.495 -17 27 C-18.32 27 -19.64 27 -21 27 C-21 26.01 -21 25.02 -21 24 C-19.68 24 -18.36 24 -17 24 C-17 23.34 -17 22.68 -17 22 C-15.35 22 -13.7 22 -12 22 C-12 21.34 -12 20.68 -12 20 C-10.68 19.67 -9.36 19.34 -8 19 C-8 19.66 -8 20.32 -8 21 C-7.34 21 -6.68 21 -6 21 C-6 23.64 -6 26.28 -6 29 C-4.02 29 -2.04 29 0 29 C0 28.34 0 27.68 0 27 C-0.66 27 -1.32 27 -2 27 C-2 25.68 -2 24.36 -2 23 C-2.66 23 -3.32 23 -4 23 C-4 22.34 -4 21.68 -4 21 C-3.34 21 -2.68 21 -2 21 C-2 18.69 -2 16.38 -2 14 C-2.66 14 -3.32 14 -4 14 C-4 14.66 -4 15.32 -4 16 C-4.66 16 -5.32 16 -6 16 C-6 16.66 -6 17.32 -6 18 C-6.66 18 -7.32 18 -8 18 C-8 16.68 -8 15.36 -8 14 C-7.34 14 -6.68 14 -6 14 C-6 13.34 -6 12.68 -6 12 C-5.34 12 -4.68 12 -4 12 C-4 11.34 -4 10.68 -4 10 C-3.01 10 -2.02 10 -1 10 C-0.67 6.7 -0.34 3.4 0 0 Z " fill="#3C7A4B" transform="translate(61,47)"/>
<path d="M0 0 C0.66 0 1.32 0 2 0 C2.66 1.98 3.32 3.96 4 6 C4.66 6 5.32 6 6 6 C6 4.68 6 3.36 6 2 C6.66 2 7.32 2 8 2 C8 3.32 8 4.64 8 6 C8.66 6 9.32 6 10 6 C10 4.68 10 3.36 10 2 C10.99 2 11.98 2 13 2 C13 3.32 13 4.64 13 6 C14.65 6 16.3 6 18 6 C17.67 4.68 17.34 3.36 17 2 C17.66 2 18.32 2 19 2 C19 3.32 19 4.64 19 6 C19.66 6 20.32 6 21 6 C21 5.34 21 4.68 21 4 C21.66 4 22.32 4 23 4 C23 4.66 23 5.32 23 6 C24.65 6 26.3 6 28 6 C28 4.68 28 3.36 28 2 C28.66 2 29.32 2 30 2 C30 3.32 30 4.64 30 6 C30.66 6 31.32 6 32 6 C32 5.34 32 4.68 32 4 C32.66 4 33.32 4 34 4 C34 4.66 34 5.32 34 6 C35.32 6 36.64 6 38 6 C38 5.34 38 4.68 38 4 C38.66 4 39.32 4 40 4 C40 3.34 40 2.68 40 2 C41.32 2 42.64 2 44 2 C44.495 3.98 44.495 3.98 45 6 C46.32 6 47.64 6 49 6 C49 6.66 49 7.32 49 8 C51.31 8.33 53.62 8.66 56 9 C56 10.98 56 12.96 56 15 C55.34 15 54.68 15 54 15 C54 17.64 54 20.28 54 23 C54.66 23 55.32 23 56 23 C56 20.69 56 18.38 56 16 C56.66 16 57.32 16 58 16 C58 16.66 58 17.32 58 18 C58.99 18 59.98 18 61 18 C61 16.35 61 14.7 61 13 C61.99 13.495 61.99 13.495 63 14 C62.67 14.99 62.34 15.98 62 17 C63.98 17.495 63.98 17.495 66 18 C66.495 19.98 66.495 19.98 67 22 C67.66 22 68.32 22 69 22 C68.773125 21.443125 68.54625 20.88625 68.3125 20.3125 C68 18 68 18 69.4375 15.6875 C71.41114065 12.29283808 71.22713504 9.86129562 71 6 C72.32 6 73.64 6 75 6 C75 5.34 75 4.68 75 4 C75.66 4 76.32 4 77 4 C77 5.32 77 6.64 77 8 C77.99 8 78.98 8 80 8 C80 7.34 80 6.68 80 6 C81.98 6 83.96 6 86 6 C86.33 4.68 86.66 3.36 87 2 C87 2.66 87 3.32 87 4 C88.32 4 89.64 4 91 4 C91 4.66 91 5.32 91 6 C91.66 6 92.32 6 93 6 C93 5.34 93 4.68 93 4 C93.66 4 94.32 4 95 4 C95 4.66 95 5.32 95 6 C95.66 6 96.32 6 97 6 C96.505 4.02 96.505 4.02 96 2 C96.66 2 97.32 2 98 2 C98 2.66 98 3.32 98 4 C98.99 4 99.98 4 101 4 C101 4.66 101 5.32 101 6 C104.3 6 107.6 6 111 6 C111 4.68 111 3.36 111 2 C111.66 2 112.32 2 113 2 C113 2.66 113 3.32 113 4 C114.65 3.67 116.3 3.34 118 3 C118 3.99 118 4.98 118 6 C118.99 6 119.98 6 121 6 C121 4.68 121 3.36 121 2 C122.32 2 123.64 2 125 2 C125 1.34 125 0.68 125 0 C125.66 0 126.32 0 127 0 C127 0.66 127 1.32 127 2 C127.66 2 128.32 2 129 2 C129 3.32 129 4.64 129 6 C129.66 6 130.32 6 131 6 C131 4.68 131 3.36 131 2 C131.66 2 132.32 2 133 2 C133 2.66 133 3.32 133 4 C133.66 4 134.32 4 135 4 C135 4.66 135 5.32 135 6 C135.66 6 136.32 6 137 6 C137.33 4.68 137.66 3.36 138 2 C138 9.92 138 17.84 138 26 C88.5 26 39 26 -12 26 C-12 6 -12 6 -11 2 C-10.34 2 -9.68 2 -9 2 C-9 3.32 -9 4.64 -9 6 C-8.34 6 -7.68 6 -7 6 C-7 5.34 -7 4.68 -7 4 C-5.68 4.33 -4.36 4.66 -3 5 C-2.54625 4.175 -2.0925 3.35 -1.625 2.5 C-1.08875 1.675 -0.5525 0.85 0 0 Z " fill="#066841" transform="translate(12,124)"/>
<path d="M0 0 C0.99 0 1.98 0 3 0 C3 0.66 3 1.32 3 2 C3.66 2 4.32 2 5 2 C5 3.32 5 4.64 5 6 C5.66 6 6.32 6 7 6 C7 6.66 7 7.32 7 8 C9.64 8 12.28 8 15 8 C15 7.01 15 6.02 15 5 C15.66 5 16.32 5 17 5 C17 4.01 17 3.02 17 2 C18.65 2 20.3 2 22 2 C22 2.66 22 3.32 22 4 C22.66 4 23.32 4 24 4 C24 13.24 24 22.48 24 32 C24.66 32 25.32 32 26 32 C25 35 25 35 24 37 C23.34 37 22.68 37 22 37 C22 38.32 22 39.64 22 41 C21.34 41 20.68 41 20 41 C20 41.99 20 42.98 20 44 C18.58461283 44.33872513 17.16762037 44.67074624 15.75 45 C14.96109375 45.185625 14.1721875 45.37125 13.359375 45.5625 C11 46 11 46 7 46 C7 45.34 7 44.68 7 44 C7.66 44 8.32 44 9 44 C9 43.01 9 42.02 9 41 C8.34 41 7.68 41 7 41 C7 40.34 7 39.68 7 39 C6.34 39 5.68 39 5 39 C5 39.66 5 40.32 5 41 C4.01 41 3.02 41 2 41 C2 41.66 2 42.32 2 43 C1.34 43 0.68 43 0 43 C0 43.99 0 44.98 0 46 C-1.98 46.495 -1.98 46.495 -4 47 C-4 48.98 -4 50.96 -4 53 C-4.66 53 -5.32 53 -6 53 C-6 51.02 -6 49.04 -6 47 C-6.66 47 -7.32 47 -8 47 C-8 46.34 -8 45.68 -8 45 C-7.34 45 -6.68 45 -6 45 C-6 43.68 -6 42.36 -6 41 C-5.34 41 -4.68 41 -4 41 C-4 39.68 -4 38.36 -4 37 C-4.66 37 -5.32 37 -6 37 C-6 36.34 -6 35.68 -6 35 C-8.31 35 -10.62 35 -13 35 C-13 34.34 -13 33.68 -13 33 C-13.66 33 -14.32 33 -15 33 C-15 32.34 -15 31.68 -15 31 C-15.66 31 -16.32 31 -17 31 C-17 32.65 -17 34.3 -17 36 C-18.32 35.67 -19.64 35.34 -21 35 C-21 34.34 -21 33.68 -21 33 C-20.34 33 -19.68 33 -19 33 C-19.061875 32.21625 -19.12375 31.4325 -19.1875 30.625 C-19.125625 29.75875 -19.06375 28.8925 -19 28 C-18.01 27.34 -17.02 26.68 -16 26 C-16.33 26.33 -16.66 26.66 -17 27 C-18.32 27 -19.64 27 -21 27 C-21 26.01 -21 25.02 -21 24 C-19.68 24 -18.36 24 -17 24 C-17 23.34 -17 22.68 -17 22 C-15.35 22 -13.7 22 -12 22 C-12 21.34 -12 20.68 -12 20 C-10.68 19.67 -9.36 19.34 -8 19 C-8 19.66 -8 20.32 -8 21 C-7.34 21 -6.68 21 -6 21 C-6 23.64 -6 26.28 -6 29 C-4.02 29 -2.04 29 0 29 C0 28.34 0 27.68 0 27 C-0.66 27 -1.32 27 -2 27 C-2 25.68 -2 24.36 -2 23 C-2.66 23 -3.32 23 -4 23 C-4 22.34 -4 21.68 -4 21 C-3.34 21 -2.68 21 -2 21 C-2 18.69 -2 16.38 -2 14 C-2.66 14 -3.32 14 -4 14 C-4 14.66 -4 15.32 -4 16 C-4.66 16 -5.32 16 -6 16 C-6 16.66 -6 17.32 -6 18 C-6.66 18 -7.32 18 -8 18 C-8 16.68 -8 15.36 -8 14 C-7.34 14 -6.68 14 -6 14 C-6 13.34 -6 12.68 -6 12 C-5.34 12 -4.68 12 -4 12 C-4 11.34 -4 10.68 -4 10 C-3.01 10 -2.02 10 -1 10 C-0.67 6.7 -0.34 3.4 0 0 Z " fill="#719D9F" transform="translate(61,47)"/>
<path d="M0 0 C0.66 0 1.32 0 2 0 C2.66 1.98 3.32 3.96 4 6 C4.66 6 5.32 6 6 6 C6 4.68 6 3.36 6 2 C6.66 2 7.32 2 8 2 C8 3.32 8 4.64 8 6 C8.66 6 9.32 6 10 6 C10 4.68 10 3.36 10 2 C10.99 2 11.98 2 13 2 C13 3.32 13 4.64 13 6 C14.65 6 16.3 6 18 6 C17.67 4.68 17.34 3.36 17 2 C17.66 2 18.32 2 19 2 C19 3.32 19 4.64 19 6 C19.66 6 20.32 6 21 6 C21 5.34 21 4.68 21 4 C21.66 4 22.32 4 23 4 C23 4.66 23 5.32 23 6 C24.65 6 26.3 6 28 6 C28 4.68 28 3.36 28 2 C28.66 2 29.32 2 30 2 C30 3.32 30 4.64 30 6 C30.66 6 31.32 6 32 6 C32 5.34 32 4.68 32 4 C32.66 4 33.32 4 34 4 C34 4.66 34 5.32 34 6 C35.32 6 36.64 6 38 6 C38 5.34 38 4.68 38 4 C38.66 4 39.32 4 40 4 C40 3.34 40 2.68 40 2 C41.32 2 42.64 2 44 2 C44.495 3.98 44.495 3.98 45 6 C46.32 6 47.64 6 49 6 C49.495 7.98 49.495 7.98 50 10 C50.66 10 51.32 10 52 10 C52 10.66 52 11.32 52 12 C52.66 12 53.32 12 54 12 C54 12.66 54 13.32 54 14 C53.34 14 52.68 14 52 14 C52 14.99 52 15.98 52 17 C50.68 17 49.36 17 48 17 C48 16.01 48 15.02 48 14 C47.01 14 46.02 14 45 14 C45 14.99 45 15.98 45 17 C44.34 17 43.68 17 43 17 C43 17.66 43 18.32 43 19 C41.35 18.67 39.7 18.34 38 18 C37.505 16.02 37.505 16.02 37 14 C34.69 13.67 32.38 13.34 30 13 C30 14.98 30 16.96 30 19 C30.66 18.67 31.32 18.34 32 18 C32 17.34 32 16.68 32 16 C33.65 16 35.3 16 37 16 C37 17.32 37 18.64 37 20 C36.01 20 35.02 20 34 20 C34 20.66 34 21.32 34 22 C30.6828589 23.4216319 27.55780196 24.39009109 24 25 C24.66 25.33 25.32 25.66 26 26 C13.46 26 0.92 26 -12 26 C-12.020625 22.7825 -12.04125 19.565 -12.0625 16.25 C-12.071604 15.24227539 -12.08070801 14.23455078 -12.09008789 13.19628906 C-12.09258545 12.39416992 -12.09508301 11.59205078 -12.09765625 10.765625 C-12.10289307 9.94868164 -12.10812988 9.13173828 -12.11352539 8.29003906 C-12.00299021 6.06031865 -11.62055567 4.13866245 -11 2 C-10.34 2 -9.68 2 -9 2 C-9 3.32 -9 4.64 -9 6 C-8.34 6 -7.68 6 -7 6 C-7 5.34 -7 4.68 -7 4 C-5.68 4.33 -4.36 4.66 -3 5 C-2.54625 4.175 -2.0925 3.35 -1.625 2.5 C-1.08875 1.675 -0.5525 0.85 0 0 Z " fill="#106B3F" transform="translate(12,124)"/>
<path d="M0 0 C2.64 0 5.28 0 8 0 C8 0.66 8 1.32 8 2 C8.66 2 9.32 2 10 2 C10 2.66 10 3.32 10 4 C10.66 4 11.32 4 12 4 C12 4.66 12 5.32 12 6 C12.99 6 13.98 6 15 6 C15 8.64 15 11.28 15 14 C15.66 14 16.32 14 17 14 C17 19.28 17 24.56 17 30 C16.34 30 15.68 30 15 30 C15 31.98 15 33.96 15 36 C14.34 36 13.68 36 13 36 C13 36.66 13 37.32 13 38 C12.34 38 11.68 38 11 38 C11 38.66 11 39.32 11 40 C8.35261084 41.4606285 7.10551666 42 4 42 C4 41.34 4 40.68 4 40 C3.34 40 2.68 40 2 40 C2 41.32 2 42.64 2 44 C-1.3 44 -4.6 44 -8 44 C-8 43.34 -8 42.68 -8 42 C-8.99 42 -9.98 42 -11 42 C-11 41.34 -11 40.68 -11 40 C-11.66 40 -12.32 40 -13 40 C-12.67 41.32 -12.34 42.64 -12 44 C-12.66 44 -13.32 44 -14 44 C-14 43.34 -14 42.68 -14 42 C-14.66 42 -15.32 42 -16 42 C-16 42.66 -16 43.32 -16 44 C-16.66 44 -17.32 44 -18 44 C-18 43.34 -18 42.68 -18 42 C-20.64 42 -23.28 42 -26 42 C-26 41.34 -26 40.68 -26 40 C-28.97 40.495 -28.97 40.495 -32 41 C-32 40.34 -32 39.68 -32 39 C-32.66 38.67 -33.32 38.34 -34 38 C-34 37.01 -34 36.02 -34 35 C-34.66 34.67 -35.32 34.34 -36 34 C-35.34 34 -34.68 34 -34 34 C-34 33.01 -34 32.02 -34 31 C-33.34 31 -32.68 31 -32 31 C-32 30.34 -32 29.68 -32 29 C-31.34 29 -30.68 29 -30 29 C-30 28.34 -30 27.68 -30 27 C-29.01 27 -28.02 27 -27 27 C-27 26.34 -27 25.68 -27 25 C-25.02 25 -23.04 25 -21 25 C-21 24.34 -21 23.68 -21 23 C-19.68 23 -18.36 23 -17 23 C-17 22.34 -17 21.68 -17 21 C-16.01 21 -15.02 21 -14 21 C-14 19.68 -14 18.36 -14 17 C-15.32 17 -16.64 17 -18 17 C-18.33 18.32 -18.66 19.64 -19 21 C-20.98 21 -22.96 21 -25 21 C-25 21.66 -25 22.32 -25 23 C-26.32 23 -27.64 23 -29 23 C-28.67 21.68 -28.34 20.36 -28 19 C-27.01 19 -26.02 19 -25 19 C-25 18.34 -25 17.68 -25 17 C-24.34 17 -23.68 17 -23 17 C-23 16.34 -23 15.68 -23 15 C-21.68 15 -20.36 15 -19 15 C-18.67 13.02 -18.34 11.04 -18 9 C-17.34 9 -16.68 9 -16 9 C-16 9.66 -16 10.32 -16 11 C-15.34 11 -14.68 11 -14 11 C-14 11.99 -14 12.98 -14 14 C-13.01 14 -12.02 14 -11 14 C-8.32072659 18.01891012 -8.84398752 20.24161923 -9 25 C-8.34 25 -7.68 25 -7 25 C-7 26.98 -7 28.96 -7 31 C-6.34 31 -5.68 31 -5 31 C-5 31.66 -5 32.32 -5 33 C-2.36 33 0.28 33 3 33 C3 32.34 3 31.68 3 31 C3.66 31 4.32 31 5 31 C5 30.34 5 29.68 5 29 C5.66 29 6.32 29 7 29 C7 25.7 7 22.4 7 19 C6.34 19 5.68 19 5 19 C4.87625 18.195625 4.7525 17.39125 4.625 16.5625 C4.41875 15.716875 4.2125 14.87125 4 14 C3.34 13.67 2.68 13.34 2 13 C2 12.34 2 11.68 2 11 C1.34 11 0.68 11 0 11 C0 10.01 0 9.02 0 8 C-0.66 8 -1.32 8 -2 8 C-2 6.02 -2 4.04 -2 2 C-1.34 2 -0.68 2 0 2 C0 1.34 0 0.68 0 0 Z " fill="#272C2B" transform="translate(121,86)"/>
<path d="M0 0 C0.99 0 1.98 0 3 0 C3 0.66 3 1.32 3 2 C3.66 2 4.32 2 5 2 C5 3.32 5 4.64 5 6 C5.66 6 6.32 6 7 6 C7 6.66 7 7.32 7 8 C8.65 8 10.3 8 12 8 C12.33 10.31 12.66 12.62 13 15 C13.66 15 14.32 15 15 15 C15 15.66 15 16.32 15 17 C15.66 17 16.32 17 17 17 C17 17.66 17 18.32 17 19 C17.99 19 18.98 19 20 19 C20 18.34 20 17.68 20 17 C20.66 17 21.32 17 22 17 C22 13.04 22 9.08 22 5 C22.33 5 22.66 5 23 5 C23 13.58 23 22.16 23 31 C22.67 30.34 22.34 29.68 22 29 C21.34 29 20.68 29 20 29 C20 29.66 20 30.32 20 31 C19.01 31 18.02 31 17 31 C17 31.66 17 32.32 17 33 C16.34 33 15.68 33 15 33 C15 33.66 15 34.32 15 35 C14.34 35 13.68 35 13 35 C13 34.34 13 33.68 13 33 C12.01 33 11.02 33 10 33 C10.33 34.32 10.66 35.64 11 37 C10.34 37 9.68 37 9 37 C9 36.34 9 35.68 9 35 C8.34 35 7.68 35 7 35 C7 34.34 7 33.68 7 33 C6.34 33 5.68 33 5 33 C5 32.34 5 31.68 5 31 C4.34 31 3.68 31 3 31 C3 31.66 3 32.32 3 33 C2.34 33 1.68 33 1 33 C0.91995518 29.4780279 0.95994298 26.38018531 2 23 C0.68 22.67 -0.64 22.34 -2 22 C-2 19.36 -2 16.72 -2 14 C-2.66 14 -3.32 14 -4 14 C-4 14.66 -4 15.32 -4 16 C-4.66 16 -5.32 16 -6 16 C-6 16.66 -6 17.32 -6 18 C-6.66 18 -7.32 18 -8 18 C-8 16.68 -8 15.36 -8 14 C-7.34 14 -6.68 14 -6 14 C-6 13.34 -6 12.68 -6 12 C-5.34 12 -4.68 12 -4 12 C-4 11.34 -4 10.68 -4 10 C-3.01 10 -2.02 10 -1 10 C-0.67 6.7 -0.34 3.4 0 0 Z " fill="#261A18" transform="translate(61,47)"/>
<path d="M0 0 C0.33 0.66 0.66 1.32 1 2 C1.99 2 2.98 2 4 2 C4 3.32 4 4.64 4 6 C6.64 6 9.28 6 12 6 C12 6.99 12 7.98 12 9 C12.66 9 13.32 9 14 9 C13.34 11.31 12.68 13.62 12 16 C10.02 16 8.04 16 6 16 C6 16.66 6 17.32 6 18 C4.68 18 3.36 18 2 18 C2 20.31 2 22.62 2 25 C1.34 25 0.68 25 0 25 C0 26.32 0 27.64 0 29 C-0.66 29 -1.32 29 -2 29 C-2 30.98 -2 32.96 -2 35 C-2.99 35 -3.98 35 -5 35 C-5 33.68 -5 32.36 -5 31 C-7.64 31 -10.28 31 -13 31 C-13 30.34 -13 29.68 -13 29 C-13.66 29 -14.32 29 -15 29 C-15.33 33.95 -15.66 38.9 -16 44 C-16.33 44 -16.66 44 -17 44 C-17 40.37 -17 36.74 -17 33 C-17.66 33 -18.32 33 -19 33 C-19 32.34 -19 31.68 -19 31 C-18.34 31 -17.68 31 -17 31 C-17 27.04 -17 23.08 -17 19 C-15.68 19.33 -14.36 19.66 -13 20 C-13 17.36 -13 14.72 -13 12 C-8.545 11.505 -8.545 11.505 -4 11 C-4 10.01 -4 9.02 -4 8 C-3.34 8 -2.68 8 -2 8 C-2 6.68 -2 5.36 -2 4 C-1.34 4 -0.68 4 0 4 C0 2.68 0 1.36 0 0 Z " fill="#231F1B" transform="translate(85,80)"/>
<path d="M0 0 C0.33 0.66 0.66 1.32 1 2 C2.32 2 3.64 2 5 2 C5 2.66 5 3.32 5 4 C5.66 4 6.32 4 7 4 C7 3.34 7 2.68 7 2 C7.66 2 8.32 2 9 2 C9 2.66 9 3.32 9 4 C9.66 4 10.32 4 11 4 C10.67 2.68 10.34 1.36 10 0 C10.66 0 11.32 0 12 0 C12 0.66 12 1.32 12 2 C12.99 2 13.98 2 15 2 C15 2.66 15 3.32 15 4 C17.97 4 20.94 4 24 4 C24 8.29 24 12.58 24 17 C23.34 17 22.68 17 22 17 C21.505 15.02 21.505 15.02 21 13 C20.896875 14.11375 20.79375 15.2275 20.6875 16.375 C20.460625 17.57125 20.23375 18.7675 20 20 C19.01 20.66 18.02 21.32 17 22 C16.34 21.67 15.68 21.34 15 21 C15 20.01 15 19.02 15 18 C14.34 17.67 13.68 17.34 13 17 C13.33 16.34 13.66 15.68 14 15 C12.02 15.66 10.04 16.32 8 17 C8.33 17.99 8.66 18.98 9 20 C7.68 20.33 6.36 20.66 5 21 C5 20.34 5 19.68 5 19 C4.01 18.67 3.02 18.34 2 18 C2 17.01 2 16.02 2 15 C1.34 15 0.68 15 0 15 C0 14.01 0 13.02 0 12 C-0.66 12 -1.32 12 -2 12 C-1.67 13.65 -1.34 15.3 -1 17 C-1.99 17 -2.98 17 -4 17 C-4 16.34 -4 15.68 -4 15 C-7.46941546 15.45822468 -10.67395049 15.89131683 -14 17 C-13.67 14.69 -13.34 12.38 -13 10 C-12.34 10 -11.68 10 -11 10 C-11 8.68 -11 7.36 -11 6 C-11.66 6 -12.32 6 -13 6 C-13 5.34 -13 4.68 -13 4 C-12.34 4 -11.68 4 -11 4 C-11 3.34 -11 2.68 -11 2 C-10.34 2 -9.68 2 -9 2 C-9 3.32 -9 4.64 -9 6 C-8.01 6 -7.02 6 -6 6 C-6 5.34 -6 4.68 -6 4 C-4.02 4 -2.04 4 0 4 C0 2.68 0 1.36 0 0 Z " fill="#2D7B37" transform="translate(98,126)"/>
<path d="M0 0 C2.64 0 5.28 0 8 0 C8 0.66 8 1.32 8 2 C8.66 2 9.32 2 10 2 C10 2.66 10 3.32 10 4 C10.66 4 11.32 4 12 4 C12 4.66 12 5.32 12 6 C12.99 6 13.98 6 15 6 C15 8.64 15 11.28 15 14 C15.66 14 16.32 14 17 14 C17 19.28 17 24.56 17 30 C16.34 30 15.68 30 15 30 C15 31.98 15 33.96 15 36 C14.34 36 13.68 36 13 36 C13 36.66 13 37.32 13 38 C12.34 38 11.68 38 11 38 C11 38.66 11 39.32 11 40 C8.35261084 41.4606285 7.10551666 42 4 42 C3.26919734 40.02253397 2.60578253 38.01927511 2 36 C2.33 35.34 2.66 34.68 3 34 C2.01 34 1.02 34 0 34 C0 34.66 0 35.32 0 36 C-0.66 35.67 -1.32 35.34 -2 35 C-1.67 34.34 -1.34 33.68 -1 33 C0.32 33 1.64 33 3 33 C3 32.34 3 31.68 3 31 C3.66 31 4.32 31 5 31 C5 30.34 5 29.68 5 29 C5.66 29 6.32 29 7 29 C7 25.7 7 22.4 7 19 C6.34 19 5.68 19 5 19 C4.87625 18.195625 4.7525 17.39125 4.625 16.5625 C4.41875 15.716875 4.2125 14.87125 4 14 C3.34 13.67 2.68 13.34 2 13 C2 12.34 2 11.68 2 11 C1.34 11 0.68 11 0 11 C0 10.01 0 9.02 0 8 C-0.66 8 -1.32 8 -2 8 C-2 6.02 -2 4.04 -2 2 C-1.34 2 -0.68 2 0 2 C0 1.34 0 0.68 0 0 Z " fill="#2E2E2A" transform="translate(121,86)"/>
<path d="M0 0 C0.99 0 1.98 0 3 0 C3 0.66 3 1.32 3 2 C3.66 2 4.32 2 5 2 C5 2.66 5 3.32 5 4 C5.66 4 6.32 4 7 4 C7 4.66 7 5.32 7 6 C7.66 6 8.32 6 9 6 C9.33 6.99 9.66 7.98 10 9 C9.34 9 8.68 9 8 9 C8 8.34 8 7.68 8 7 C7.34 7 6.68 7 6 7 C5.67 8.98 5.34 10.96 5 13 C3.68 13 2.36 13 1 13 C1 13.66 1 14.32 1 15 C0.34 15 -0.32 15 -1 15 C-1 15.66 -1 16.32 -1 17 C-1.99 17 -2.98 17 -4 17 C-4.33 18.32 -4.66 19.64 -5 21 C-3.68 21 -2.36 21 -1 21 C-1 20.34 -1 19.68 -1 19 C0.98 19 2.96 19 5 19 C5.33 17.68 5.66 16.36 6 15 C7.32 15 8.64 15 10 15 C10 16.32 10 17.64 10 19 C9.01 19 8.02 19 7 19 C7 19.66 7 20.32 7 21 C5.68 21 4.36 21 3 21 C3 21.66 3 22.32 3 23 C1.02 23 -0.96 23 -3 23 C-3 23.66 -3 24.32 -3 25 C-3.99 25 -4.98 25 -6 25 C-6 25.66 -6 26.32 -6 27 C-6.66 27 -7.32 27 -8 27 C-8 27.66 -8 28.32 -8 29 C-8.66 29 -9.32 29 -10 29 C-10 31.31 -10 33.62 -10 36 C-8.68 36.33 -7.36 36.66 -6 37 C-6.66 37 -7.32 37 -8 37 C-8 37.66 -8 38.32 -8 39 C-5.03 38.505 -5.03 38.505 -2 38 C-2 38.66 -2 39.32 -2 40 C-1.01 40 -0.02 40 1 40 C1 40.66 1 41.32 1 42 C-0.98 42 -2.96 42 -5 42 C-5 42.66 -5 43.32 -5 44 C-5.99 44 -6.98 44 -8 44 C-8 42.68 -8 41.36 -8 40 C-8.66 40 -9.32 40 -10 40 C-10 40.66 -10 41.32 -10 42 C-11.32 42 -12.64 42 -14 42 C-14.495 44.475 -14.495 44.475 -15 47 C-16.32 47 -17.64 47 -19 47 C-18.625 45.0625 -18.625 45.0625 -18 43 C-17.01 42.505 -17.01 42.505 -16 42 C-15.34227572 38.97065509 -15.34227572 38.97065509 -15 36 C-15.66 36 -16.32 36 -17 36 C-17.33 36.66 -17.66 37.32 -18 38 C-17.67 34.37 -17.34 30.74 -17 27 C-16.01 27 -15.02 27 -14 27 C-14 25.02 -14 23.04 -14 21 C-13.34 21 -12.68 21 -12 21 C-12 19.68 -12 18.36 -12 17 C-11.34 17 -10.68 17 -10 17 C-10 14.69 -10 12.38 -10 10 C-8.68 10 -7.36 10 -6 10 C-6 9.34 -6 8.68 -6 8 C-4.02 8 -2.04 8 0 8 C0.66 5.69 1.32 3.38 2 1 C1.34 0.67 0.68 0.34 0 0 Z " fill="#CE5531" transform="translate(97,88)"/>
<path d="M0 0 C0.66 0 1.32 0 2 0 C2 0.66 2 1.32 2 2 C2.66 2 3.32 2 4 2 C4 3.32 4 4.64 4 6 C4.66 6 5.32 6 6 6 C6 4.68 6 3.36 6 2 C6.66 2 7.32 2 8 2 C8 2.66 8 3.32 8 4 C8.66 4 9.32 4 10 4 C10 4.66 10 5.32 10 6 C10.66 6 11.32 6 12 6 C12.33 4.68 12.66 3.36 13 2 C13 9.92 13 17.84 13 26 C8.05 26 3.1 26 -2 26 C-2 25.34 -2 24.68 -2 24 C-0.2433538 22.68251535 1.59893894 21.5641447 3.46875 20.4140625 C3.9740625 19.94742188 4.479375 19.48078125 5 19 C5 17.68 5 16.36 5 15 C4.34 15 3.68 15 3 15 C3.33 16.32 3.66 17.64 4 19 C3.34 19 2.68 19 2 19 C1.67 19.66 1.34 20.32 1 21 C0.34 21 -0.32 21 -1 21 C-1 19.68 -1 18.36 -1 17 C-1.99 17 -2.98 17 -4 17 C-4 18.32 -4 19.64 -4 21 C-4.99 21 -5.98 21 -7 21 C-7 20.01 -7 19.02 -7 18 C-7.66 18 -8.32 18 -9 18 C-9.33 16.02 -9.66 14.04 -10 12 C-8.68 12 -7.36 12 -6 12 C-6 11.34 -6 10.68 -6 10 C-6.99 10.33 -7.98 10.66 -9 11 C-9 9.35 -9 7.7 -9 6 C-9.66 6.66 -10.32 7.32 -11 8 C-11 7.34 -11 6.68 -11 6 C-11.66 6 -12.32 6 -13 6 C-13 7.32 -13 8.64 -13 10 C-12.34 10 -11.68 10 -11 10 C-11 10.66 -11 11.32 -11 12 C-11.99 12 -12.98 12 -14 12 C-14 8.7 -14 5.4 -14 2 C-13.34 2 -12.68 2 -12 2 C-12 2.66 -12 3.32 -12 4 C-10.35 3.67 -8.7 3.34 -7 3 C-7 3.99 -7 4.98 -7 6 C-6.01 6 -5.02 6 -4 6 C-4 4.68 -4 3.36 -4 2 C-2.68 2 -1.36 2 0 2 C0 1.34 0 0.68 0 0 Z " fill="#0B6B3F" transform="translate(137,124)"/>
<path d="M0 0 C0.66 0 1.32 0 2 0 C2.66 1.98 3.32 3.96 4 6 C4.66 6 5.32 6 6 6 C6 4.68 6 3.36 6 2 C6.66 2 7.32 2 8 2 C8 3.32 8 4.64 8 6 C8.66 6 9.32 6 10 6 C10 4.68 10 3.36 10 2 C10.99 2 11.98 2 13 2 C13 3.32 13 4.64 13 6 C14.65 6 16.3 6 18 6 C17.67 4.68 17.34 3.36 17 2 C17.66 2 18.32 2 19 2 C19 3.32 19 4.64 19 6 C19.66 6 20.32 6 21 6 C21 5.34 21 4.68 21 4 C21.66 4 22.32 4 23 4 C23.495 6.97 23.495 6.97 24 10 C23.505 9.01 23.505 9.01 23 8 C22.34 8 21.68 8 21 8 C21.04125 8.928125 21.0825 9.85625 21.125 10.8125 C21 14 21 14 19 17 C17.68 16.67 16.36 16.34 15 16 C15 15.34 15 14.68 15 14 C14.34 14 13.68 14 13 14 C12.67 14.66 12.34 15.32 12 16 C12 14.02 12 12.04 12 10 C11.34 10 10.68 10 10 10 C9.67 11.65 9.34 13.3 9 15 C8.34 15 7.68 15 7 15 C6.67 14.01 6.34 13.02 6 12 C5.01 11.34 4.02 10.68 3 10 C2.67 12.31 2.34 14.62 2 17 C2.66 17 3.32 17 4 17 C3.34 18.32 2.68 19.64 2 21 C1.34 21 0.68 21 0 21 C-0.144375 20.05125 -0.28875 19.1025 -0.4375 18.125 C-0.82935399 15.1065506 -0.82935399 15.1065506 -2 13 C-2.66 13 -3.32 13 -4 13 C-4 12.01 -4 11.02 -4 10 C-4.66 10 -5.32 10 -6 10 C-6 12.97 -6 15.94 -6 19 C-6.99 19 -7.98 19 -9 19 C-9 18.01 -9 17.02 -9 16 C-8.34 16 -7.68 16 -7 16 C-7 15.34 -7 14.68 -7 14 C-7.66 14 -8.32 14 -9 14 C-9.33 15.32 -9.66 16.64 -10 18 C-10.66 18 -11.32 18 -12 18 C-12.02712153 16.083412 -12.04645097 14.1667127 -12.0625 12.25 C-12.07410156 11.18265625 -12.08570313 10.1153125 -12.09765625 9.015625 C-12.01510087 6.46631499 -11.74617558 4.42066409 -11 2 C-10.34 2 -9.68 2 -9 2 C-9 3.32 -9 4.64 -9 6 C-8.34 6 -7.68 6 -7 6 C-7 5.34 -7 4.68 -7 4 C-5.68 4.33 -4.36 4.66 -3 5 C-2.54625 4.175 -2.0925 3.35 -1.625 2.5 C-1.08875 1.675 -0.5525 0.85 0 0 Z " fill="#579D46" transform="translate(12,124)"/>
<path d="M0 0 C0.66 0 1.32 0 2 0 C2 1.32 2 2.64 2 4 C2.66 4 3.32 4 4 4 C4 3.34 4 2.68 4 2 C4.66 2 5.32 2 6 2 C6 2.66 6 3.32 6 4 C7.32 4 8.64 4 10 4 C10 3.34 10 2.68 10 2 C10.66 2 11.32 2 12 2 C12 1.34 12 0.68 12 0 C13.32 0 14.64 0 16 0 C16.33 1.32 16.66 2.64 17 4 C18.32 4 19.64 4 21 4 C21.33 5.32 21.66 6.64 22 8 C22.66 8 23.32 8 24 8 C24 8.66 24 9.32 24 10 C24.66 10 25.32 10 26 10 C26 10.66 26 11.32 26 12 C25.34 12 24.68 12 24 12 C24 12.99 24 13.98 24 15 C22.68 15 21.36 15 20 15 C20 14.01 20 13.02 20 12 C19.01 12 18.02 12 17 12 C17 12.99 17 13.98 17 15 C16.34 15 15.68 15 15 15 C15 15.66 15 16.32 15 17 C13.35 16.67 11.7 16.34 10 16 C9.67 14.68 9.34 13.36 9 12 C6.69 11.67 4.38 11.34 2 11 C2 12.98 2 14.96 2 17 C2.66 16.67 3.32 16.34 4 16 C4 15.34 4 14.68 4 14 C5.65 14 7.3 14 9 14 C9 15.32 9 16.64 9 18 C8.01 18 7.02 18 6 18 C6 18.66 6 19.32 6 20 C4.35 20.33 2.7 20.66 1 21 C1 20.34 1 19.68 1 19 C0.34 19 -0.32 19 -1 19 C-1.66 17.02 -2.32 15.04 -3 13 C-2.01 13 -1.02 13 0 13 C-0.33 10.69 -0.66 8.38 -1 6 C-1.66 6 -2.32 6 -3 6 C-3 5.34 -3 4.68 -3 4 C-2.01 4 -1.02 4 0 4 C0 2.68 0 1.36 0 0 Z " fill="#1B763B" transform="translate(40,126)"/>
<path d="M0 0 C0.99 0 1.98 0 3 0 C2.67 0.99 2.34 1.98 2 3 C2.66 3.33 3.32 3.66 4 4 C4 3.34 4 2.68 4 2 C5.32 2 6.64 2 8 2 C8 2.66 8 3.32 8 4 C7.34 4 6.68 4 6 4 C6 4.66 6 5.32 6 6 C6.66 6.33 7.32 6.66 8 7 C7.01 7 6.02 7 5 7 C5.66 8.32 6.32 9.64 7 11 C7.66 9.68 8.32 8.36 9 7 C9.99 7 10.98 7 12 7 C11.67 8.98 11.34 10.96 11 13 C11.66 12.34 12.32 11.68 13 11 C13 10.34 13 9.68 13 9 C13.99 9 14.98 9 16 9 C16 9.66 16 10.32 16 11 C16.66 11 17.32 11 18 11 C18 10.34 18 9.68 18 9 C18.99 9 19.98 9 21 9 C21.33 10.98 21.66 12.96 22 15 C21.34 15 20.68 15 20 15 C20 16.32 20 17.64 20 19 C16.7 19 13.4 19 10 19 C10 18.34 10 17.68 10 17 C9.01 17 8.02 17 7 17 C7 16.34 7 15.68 7 15 C6.34 15 5.68 15 5 15 C5.33 16.32 5.66 17.64 6 19 C5.34 19 4.68 19 4 19 C4 18.34 4 17.68 4 17 C3.34 17 2.68 17 2 17 C2 17.66 2 18.32 2 19 C1.34 19 0.68 19 0 19 C0 18.34 0 17.68 0 17 C-1.32 17 -2.64 17 -4 17 C-4.33 15.68 -4.66 14.36 -5 13 C-4.34 13 -3.68 13 -3 13 C-3 12.34 -3 11.68 -3 11 C-2.01 11 -1.02 11 0 11 C0 10.34 0 9.68 0 9 C0.66 9 1.32 9 2 9 C2 8.34 2 7.68 2 7 C0.68 7 -0.64 7 -2 7 C-2.33 7.66 -2.66 8.32 -3 9 C-3 8.01 -3 7.02 -3 6 C-5.31 6 -7.62 6 -10 6 C-10 5.34 -10 4.68 -10 4 C-6.7 4 -3.4 4 0 4 C0 2.68 0 1.36 0 0 Z " fill="#1B1C16" transform="translate(103,111)"/>
<path d="M0 0 C1.65 0 3.3 0 5 0 C5 0.66 5 1.32 5 2 C5.66 2 6.32 2 7 2 C7 11.24 7 20.48 7 30 C7.66 30 8.32 30 9 30 C8 33 8 33 7 35 C6.34 35 5.68 35 5 35 C5 36.32 5 37.64 5 39 C4.34 39 3.68 39 3 39 C3 39.99 3 40.98 3 42 C0.525 42.495 0.525 42.495 -2 43 C-1.34 41.68 -0.68 40.36 0 39 C0 39.66 0 40.32 0 41 C0.66 41 1.32 41 2 41 C1.505 39.515 1.505 39.515 1 38 C-0.65 37.67 -2.3 37.34 -4 37 C-4 37.66 -4 38.32 -4 39 C-4.66 39 -5.32 39 -6 39 C-6.33 36.36 -6.66 33.72 -7 31 C-6.01 31 -5.02 31 -4 31 C-4 31.66 -4 32.32 -4 33 C-3.34 33 -2.68 33 -2 33 C-2 32.34 -2 31.68 -2 31 C-1.34 31 -0.68 31 0 31 C0 30.34 0 29.68 0 29 C0.99 29 1.98 29 3 29 C3 28.34 3 27.68 3 27 C3.66 27 4.32 27 5 27 C5 23.04 5 19.08 5 15 C4.34 15 3.68 15 3 15 C3 15.66 3 16.32 3 17 C2.01 17 1.02 17 0 17 C0 16.34 0 15.68 0 15 C-0.66 15 -1.32 15 -2 15 C-2 14.34 -2 13.68 -2 13 C-2.66 13 -3.32 13 -4 13 C-4 10.69 -4 8.38 -4 6 C-3.34 6 -2.68 6 -2 6 C-2 5.01 -2 4.02 -2 3 C-1.34 3 -0.68 3 0 3 C0 2.01 0 1.02 0 0 Z " fill="#B04E41" transform="translate(78,49)"/>
<path d="M0 0 C0.33 0 0.66 0 1 0 C1 8.58 1 17.16 1 26 C0.67 25.34 0.34 24.68 0 24 C-0.66 24 -1.32 24 -2 24 C-2 24.66 -2 25.32 -2 26 C-2.99 26 -3.98 26 -5 26 C-5 26.66 -5 27.32 -5 28 C-5.66 28 -6.32 28 -7 28 C-7 28.66 -7 29.32 -7 30 C-7.66 30 -8.32 30 -9 30 C-9 29.34 -9 28.68 -9 28 C-9.99 28 -10.98 28 -12 28 C-11.67 29.32 -11.34 30.64 -11 32 C-11.66 32 -12.32 32 -13 32 C-13 31.34 -13 30.68 -13 30 C-13.66 30 -14.32 30 -15 30 C-15 28.68 -15 27.36 -15 26 C-14.34 26 -13.68 26 -13 26 C-13 25.34 -13 24.68 -13 24 C-12.34 24 -11.68 24 -11 24 C-11.350625 22.80375 -11.70125 21.6075 -12.0625 20.375 C-13.48537908 14.65320967 -12.35404261 10.33582991 -10 5 C-9.67 5 -9.34 5 -9 5 C-9 6.65 -9 8.3 -9 10 C-8.34 10 -7.68 10 -7 10 C-7 10.66 -7 11.32 -7 12 C-6.34 12 -5.68 12 -5 12 C-5 12.66 -5 13.32 -5 14 C-4.01 14 -3.02 14 -2 14 C-2 13.34 -2 12.68 -2 12 C-1.34 12 -0.68 12 0 12 C0 8.04 0 4.08 0 0 Z " fill="#181613" transform="translate(83,52)"/>
<path d="M0 0 C2.64 0 5.28 0 8 0 C8 0.66 8 1.32 8 2 C8.66 2 9.32 2 10 2 C10 2.66 10 3.32 10 4 C10.66 4 11.32 4 12 4 C12 4.66 12 5.32 12 6 C12.99 6 13.98 6 15 6 C15 12.27 15 18.54 15 25 C13.68 25 12.36 25 11 25 C11 24.34 11 23.68 11 23 C10.34 23 9.68 23 9 23 C9 20.69 9 18.38 9 16 C10.65 16.33 12.3 16.66 14 17 C13.67 16.34 13.34 15.68 13 15 C11.68 15 10.36 15 9 15 C9 14.34 9 13.68 9 13 C7.02 13.99 7.02 13.99 5 15 C4.01 14.34 3.02 13.68 2 13 C2 12.34 2 11.68 2 11 C1.34 11 0.68 11 0 11 C0 10.01 0 9.02 0 8 C-0.66 8 -1.32 8 -2 8 C-2 6.02 -2 4.04 -2 2 C-1.34 2 -0.68 2 0 2 C0 1.34 0 0.68 0 0 Z " fill="#5E4E41" transform="translate(121,86)"/>
<path d="M0 0 C0.66 0 1.32 0 2 0 C2 0.66 2 1.32 2 2 C2.66 2 3.32 2 4 2 C4 2.66 4 3.32 4 4 C6.41645782 4.16687448 6.41645782 4.16687448 9 4 C9.66 3.34 10.32 2.68 11 2 C11 4.64 11 7.28 11 10 C10.34 10 9.68 10 9 10 C9 10.66 9 11.32 9 12 C9.66 12 10.32 12 11 12 C11.66 10.68 12.32 9.36 13 8 C13.66 8 14.32 8 15 8 C15 8.66 15 9.32 15 10 C17.64 10 20.28 10 23 10 C23 11.32 23 12.64 23 14 C22.34 14.66 21.68 15.32 21 16 C20.53993654 18.20250992 20.53993654 18.20250992 20.375 20.625 C20.30023438 21.44226563 20.22546875 22.25953125 20.1484375 23.1015625 C20.09945312 23.72804688 20.05046875 24.35453125 20 25 C19.67 25 19.34 25 19 25 C19 23.02 19 21.04 19 19 C17.02 18.67 15.04 18.34 13 18 C13 20.31 13 22.62 13 25 C11.68 25 10.36 25 9 25 C9.33 22.36 9.66 19.72 10 17 C9.01 17 8.02 17 7 17 C7 16.01 7 15.02 7 14 C6.34 14 5.68 14 5 14 C5 16.97 5 19.94 5 23 C4.34 23 3.68 23 3 23 C3 18.71 3 14.42 3 10 C3.66 10 4.32 10 5 10 C5 8.68 5 7.36 5 6 C4.34 6 3.68 6 3 6 C3 5.01 3 4.02 3 3 C2.01 3 1.02 3 0 3 C0 2.01 0 1.02 0 0 Z " fill="#753C2A" transform="translate(57,101)"/>
<path d="M0 0 C1.98 0 3.96 0 6 0 C6 0.66 6 1.32 6 2 C7.32 2 8.64 2 10 2 C10 2.66 10 3.32 10 4 C9.34 4 8.68 4 8 4 C8 4.66 8 5.32 8 6 C7.34 6 6.68 6 6 6 C6 6.66 6 7.32 6 8 C5.34 8 4.68 8 4 8 C4 10.31 4 12.62 4 15 C5.32 15.33 6.64 15.66 8 16 C7.34 16 6.68 16 6 16 C6 16.66 6 17.32 6 18 C7.98 17.67 9.96 17.34 12 17 C12 17.66 12 18.32 12 19 C12.99 19 13.98 19 15 19 C15 19.66 15 20.32 15 21 C13.02 21 11.04 21 9 21 C9 21.66 9 22.32 9 23 C8.01 23 7.02 23 6 23 C6 21.68 6 20.36 6 19 C5.34 19 4.68 19 4 19 C4 19.66 4 20.32 4 21 C2.68 21 1.36 21 0 21 C-0.33 22.65 -0.66 24.3 -1 26 C-2.32 26 -3.64 26 -5 26 C-4.625 24.0625 -4.625 24.0625 -4 22 C-3.34 21.67 -2.68 21.34 -2 21 C-1.34227572 17.97065509 -1.34227572 17.97065509 -1 15 C-1.66 15 -2.32 15 -3 15 C-3.33 15.66 -3.66 16.32 -4 17 C-3.67 13.37 -3.34 9.74 -3 6 C-2.01 6 -1.02 6 0 6 C0 4.02 0 2.04 0 0 Z " fill="#8B8F84" transform="translate(83,109)"/>
<path d="M0 0 C0.66 0 1.32 0 2 0 C2 0.66 2 1.32 2 2 C2.66 2 3.32 2 4 2 C4 3.32 4 4.64 4 6 C4.66 6 5.32 6 6 6 C6 4.68 6 3.36 6 2 C6.66 2 7.32 2 8 2 C8 2.66 8 3.32 8 4 C8.66 4 9.32 4 10 4 C10 4.66 10 5.32 10 6 C10.66 6 11.32 6 12 6 C12.33 4.68 12.66 3.36 13 2 C13 5.3 13 8.6 13 12 C12.67 11.34 12.34 10.68 12 10 C11.34 10 10.68 10 10 10 C10 10.66 10 11.32 10 12 C7.6739143 12.38063221 5.33944736 12.71269945 3 13 C2 12 2 12 1.9375 9.4375 C1.958125 8.633125 1.97875 7.82875 2 7 C0.68 7.33 -0.64 7.66 -2 8 C-2.98120464 11.05263664 -2.98120464 12.94736336 -2 16 C-2.66 16 -3.32 16 -4 16 C-4 15.34 -4 14.68 -4 14 C-5.65 14.66 -7.3 15.32 -9 16 C-9.33 14.68 -9.66 13.36 -10 12 C-8.68 12 -7.36 12 -6 12 C-6 11.34 -6 10.68 -6 10 C-6.99 10.33 -7.98 10.66 -9 11 C-9 9.35 -9 7.7 -9 6 C-9.66 6.66 -10.32 7.32 -11 8 C-11 7.34 -11 6.68 -11 6 C-11.66 6 -12.32 6 -13 6 C-13 7.32 -13 8.64 -13 10 C-12.34 10 -11.68 10 -11 10 C-11 10.66 -11 11.32 -11 12 C-11.99 12 -12.98 12 -14 12 C-14 8.7 -14 5.4 -14 2 C-13.34 2 -12.68 2 -12 2 C-12 2.66 -12 3.32 -12 4 C-10.35 3.67 -8.7 3.34 -7 3 C-7 3.99 -7 4.98 -7 6 C-6.01 6 -5.02 6 -4 6 C-4 4.68 -4 3.36 -4 2 C-2.68 2 -1.36 2 0 2 C0 1.34 0 0.68 0 0 Z " fill="#4B8730" transform="translate(137,124)"/>
<path d="M0 0 C1.98 0 3.96 0 6 0 C6 0.99 6 1.98 6 3 C6.66 3 7.32 3 8 3 C8.33 4.32 8.66 5.64 9 7 C9.66 7 10.32 7 11 7 C11 5.35 11 3.7 11 2 C11.99 2 12.98 2 14 2 C14 2.66 14 3.32 14 4 C14.66 4 15.32 4 16 4 C16 4.99 16 5.98 16 7 C15.34 7 14.68 7 14 7 C14 7.66 14 8.32 14 9 C13.34 9 12.68 9 12 9 C12 10.32 12 11.64 12 13 C10.68 13 9.36 13 8 13 C8 13.66 8 14.32 8 15 C7.01 15 6.02 15 5 15 C5 16.32 5 17.64 5 19 C4.01 19 3.02 19 2 19 C2 18.01 2 17.02 2 16 C0.68 16 -0.64 16 -2 16 C-2 15.01 -2 14.02 -2 13 C-2.66 13 -3.32 13 -4 13 C-4 11.68 -4 10.36 -4 9 C-3.34 9 -2.68 9 -2 9 C-2 8.34 -2 7.68 -2 7 C-1.34 7 -0.68 7 0 7 C0 4.69 0 2.38 0 0 Z " fill="#1C2E34" transform="translate(35,42)"/>
<path d="M0 0 C0.33 0.66 0.66 1.32 1 2 C1.66 2 2.32 2 3 2 C3 6.95 3 11.9 3 17 C4.65 17 6.3 17 8 17 C8.33 17.99 8.66 18.98 9 20 C7.68 20.33 6.36 20.66 5 21 C5 20.34 5 19.68 5 19 C4.01 18.67 3.02 18.34 2 18 C2 17.01 2 16.02 2 15 C1.34 15 0.68 15 0 15 C0 14.01 0 13.02 0 12 C-0.66 12 -1.32 12 -2 12 C-1.67 13.65 -1.34 15.3 -1 17 C-1.99 17 -2.98 17 -4 17 C-4 16.34 -4 15.68 -4 15 C-7.46941546 15.45822468 -10.67395049 15.89131683 -14 17 C-13.67 14.69 -13.34 12.38 -13 10 C-12.34 10 -11.68 10 -11 10 C-11 8.68 -11 7.36 -11 6 C-11.66 6 -12.32 6 -13 6 C-13 5.34 -13 4.68 -13 4 C-12.34 4 -11.68 4 -11 4 C-11 3.34 -11 2.68 -11 2 C-10.34 2 -9.68 2 -9 2 C-9 3.32 -9 4.64 -9 6 C-8.01 6 -7.02 6 -6 6 C-6 5.34 -6 4.68 -6 4 C-4.02 4 -2.04 4 0 4 C0 2.68 0 1.36 0 0 Z " fill="#3F8E30" transform="translate(98,126)"/>
<path d="M0 0 C0.66 0 1.32 0 2 0 C2 0.66 2 1.32 2 2 C2.66 2 3.32 2 4 2 C4 2.99 4 3.98 4 5 C3.34 5 2.68 5 2 5 C2 5.66 2 6.32 2 7 C3.32 7 4.64 7 6 7 C6 9.31 6 11.62 6 14 C4.68 13.67 3.36 13.34 2 13 C1.67 15.64 1.34 18.28 1 21 C0.67 20.34 0.34 19.68 0 19 C-1.65 19 -3.3 19 -5 19 C-5 18.34 -5 17.68 -5 17 C-5.66 17 -6.32 17 -7 17 C-7 16.34 -7 15.68 -7 15 C-8.32 14.67 -9.64 14.34 -11 14 C-10.34 14 -9.68 14 -9 14 C-9 12.02 -9 10.04 -9 8 C-7.68 7.67 -6.36 7.34 -5 7 C-5 6.01 -5 5.02 -5 4 C-4.34 4 -3.68 4 -3 4 C-3 3.34 -3 2.68 -3 2 C-2.01 2 -1.02 2 0 2 C0 1.34 0 0.68 0 0 Z " fill="#F9F0DD" transform="translate(66,86)"/>
<path d="M0 0 C2.31 0 4.62 0 7 0 C7 0.66 7 1.32 7 2 C7.99 2 8.98 2 10 2 C10.33 1.34 10.66 0.68 11 0 C11 1.65 11 3.3 11 5 C10.01 4.67 9.02 4.34 8 4 C8.33 4.66 8.66 5.32 9 6 C9.07065617 8.04055005 9.08421976 10.08334257 9.0625 12.125 C9.05347656 13.22070312 9.04445313 14.31640625 9.03515625 15.4453125 C9.02355469 16.28835937 9.01195313 17.13140625 9 18 C8.34 18 7.68 18 7 18 C7 16.68 7 15.36 7 14 C4.36 14 1.72 14 -1 14 C-1 13.34 -1 12.68 -1 12 C-1.66 12 -2.32 12 -3 12 C-3.33 16.95 -3.66 21.9 -4 27 C-4.33 27 -4.66 27 -5 27 C-5 23.37 -5 19.74 -5 16 C-5.66 16 -6.32 16 -7 16 C-7 15.34 -7 14.68 -7 14 C-6.34 14 -5.68 14 -5 14 C-5 11.36 -5 8.72 -5 6 C-3.02 6 -1.04 6 1 6 C0.67 4.02 0.34 2.04 0 0 Z " fill="#171211" transform="translate(73,97)"/>
<path d="M0 0 C0.33 1.32 0.66 2.64 1 4 C1.66 4 2.32 4 3 4 C3 4.66 3 5.32 3 6 C2.34 6 1.68 6 1 6 C1 6.99 1 7.98 1 9 C1.99 9 2.98 9 4 9 C4 6.03 4 3.06 4 0 C4.66 0 5.32 0 6 0 C6 0.99 6 1.98 6 3 C7.32 3.33 8.64 3.66 10 4 C10 6.31 10 8.62 10 11 C10.61875 10.505 11.2375 10.01 11.875 9.5 C14 8 14 8 16 8 C16 9.32 16 10.64 16 12 C16.66 12.33 17.32 12.66 18 13 C17.01 14.485 17.01 14.485 16 16 C14.12060547 16.34057617 14.12060547 16.34057617 11.8671875 16.29296875 C11.06152344 16.28330078 10.25585938 16.27363281 9.42578125 16.26367188 C8.58402344 16.23853516 7.74226562 16.21339844 6.875 16.1875 C5.60076172 16.16719727 5.60076172 16.16719727 4.30078125 16.14648438 C2.20025163 16.11108219 0.10004707 16.05727401 -2 16 C-2 13.36 -2 10.72 -2 8 C-1.34 8 -0.68 8 0 8 C0 5.36 0 2.72 0 0 Z " fill="#046641" transform="translate(2,134)"/>
<path d="M0 0 C0.66 0 1.32 0 2 0 C2 0.99 2 1.98 2 3 C2.99 3 3.98 3 5 3 C5.125 8.75 5.125 8.75 4 11 C5.32 11 6.64 11 8 11 C8 8.69 8 6.38 8 4 C10.97 4.495 10.97 4.495 14 5 C14 6.98 14 8.96 14 11 C13.34 11 12.68 11 12 11 C12 12.32 12 13.64 12 15 C11.34 15 10.68 15 10 15 C10 14.34 10 13.68 10 13 C9.34 13 8.68 13 8 13 C8 13.66 8 14.32 8 15 C7.34 15 6.68 15 6 15 C6 14.34 6 13.68 6 13 C5.34 13 4.68 13 4 13 C4 13.66 4 14.32 4 15 C3.34 15 2.68 15 2 15 C2 14.34 2 13.68 2 13 C1.34 13 0.68 13 0 13 C0.33 14.32 0.66 15.64 1 17 C0.34 17 -0.32 17 -1 17 C-1 16.34 -1 15.68 -1 15 C-2.32 15 -3.64 15 -5 15 C-5 13.02 -5 11.04 -5 9 C-3.35 9 -1.7 9 0 9 C0 6.03 0 3.06 0 0 Z " fill="#7F7A69" transform="translate(62,115)"/>
<path d="M0 0 C2.9375 0.8125 2.9375 0.8125 6 2 C7.31223496 5.93670488 6.24296256 8.12488144 5 12 C5.66 12 6.32 12 7 12 C7 11.34 7 10.68 7 10 C7.66 10 8.32 10 9 10 C9 10.66 9 11.32 9 12 C9.66 12 10.32 12 11 12 C11 12.66 11 13.32 11 14 C11.66 14 12.32 14 13 14 C13 14.66 13 15.32 13 16 C13.66 16 14.32 16 15 16 C15 17.32 15 18.64 15 20 C15.66 20 16.32 20 17 20 C17 19.34 17 18.68 17 18 C18.65 18 20.3 18 22 18 C22.33 19.32 22.66 20.64 23 22 C22.01 22 21.02 22 20 22 C19.67 22.66 19.34 23.32 19 24 C16.35139573 24.59355614 13.70802678 24.74209269 11 25 C11 24.34 11 23.68 11 23 C11.66 23 12.32 23 13 23 C13 22.01 13 21.02 13 20 C12.34 20 11.68 20 11 20 C11 19.34 11 18.68 11 18 C10.34 18 9.68 18 9 18 C8.67 18.66 8.34 19.32 8 20 C7.67 18.68 7.34 17.36 7 16 C6.34 16 5.68 16 5 16 C5 15.01 5 14.02 5 13 C4.34 13 3.68 13 3 13 C3.33 10.69 3.66 8.38 4 6 C3.34 6 2.68 6 2 6 C2 4.68 2 3.36 2 2 C1.34 2 0.68 2 0 2 C0 1.34 0 0.68 0 0 Z " fill="#C3ABA2" transform="translate(57,68)"/>
<path d="M0 0 C2.97 0.495 2.97 0.495 6 1 C6 2.98 6 4.96 6 7 C5.34 7 4.68 7 4 7 C4 9.64 4 12.28 4 15 C4.928125 14.814375 5.85625 14.62875 6.8125 14.4375 C10 14 10 14 13 15 C13.66 14.34 14.32 13.68 15 13 C15.33 14.65 15.66 16.3 16 18 C9.4 18 2.8 18 -4 18 C-4 9 -4 9 -3 5 C-2.01 4.67 -1.02 4.34 0 4 C0 4.66 0 5.32 0 6 C-0.66 6 -1.32 6 -2 6 C-2 6.99 -2 7.98 -2 9 C-0.68 9 0.64 9 2 9 C2 8.01 2 7.02 2 6 C2.66 6 3.32 6 4 6 C4 5.34 4 4.68 4 4 C3.34 4 2.68 4 2 4 C2 3.34 2 2.68 2 2 C1.34 2 0.68 2 0 2 C0 1.34 0 0.68 0 0 Z " fill="#036541" transform="translate(62,132)"/>
<path d="M0 0 C1.65 0 3.3 0 5 0 C1.375 3 1.375 3 -2 3 C-2 3.66 -2 4.32 -2 5 C-2.66 5 -3.32 5 -4 5 C-4 5.66 -4 6.32 -4 7 C-3.37351562 7 -2.74703125 7 -2.1015625 7 C2.265625 7 6.6328125 7 11 7 C11 7.66 11 8.32 11 9 C10.34 9 9.68 9 9 9 C9 9.66 9 10.32 9 11 C8.01 11 7.02 11 6 11 C6 11.66 6 12.32 6 13 C5.34 13 4.68 13 4 13 C4 14.32 4 15.64 4 17 C3.01 17 2.02 17 1 17 C1 16.34 1 15.68 1 15 C-0.98 15.33 -2.96 15.66 -5 16 C-5 15.34 -5 14.68 -5 14 C-5.66 13.67 -6.32 13.34 -7 13 C-7 12.01 -7 11.02 -7 10 C-7.66 9.67 -8.32 9.34 -9 9 C-8.34 9 -7.68 9 -7 9 C-7 8.01 -7 7.02 -7 6 C-6.34 6 -5.68 6 -5 6 C-5 5.34 -5 4.68 -5 4 C-4.34 4 -3.68 4 -3 4 C-3 3.34 -3 2.68 -3 2 C-2.01 2 -1.02 2 0 2 C0 1.34 0 0.68 0 0 Z " fill="#352B25" transform="translate(94,111)"/>
<path d="M0 0 C1.98 0 3.96 0 6 0 C5.67 1.65 5.34 3.3 5 5 C5.66 5 6.32 5 7 5 C7 5.99 7 6.98 7 8 C7.66 8 8.32 8 9 8 C9.33 9.32 9.66 10.64 10 12 C9.34 12 8.68 12 8 12 C8 12.66 8 13.32 8 14 C7.34 14 6.68 14 6 14 C6 14.99 6 15.98 6 17 C4.68 17.33 3.36 17.66 2 18 C2 19.98 2 21.96 2 24 C1.34 24 0.68 24 0 24 C0 22.02 0 20.04 0 18 C-0.66 18 -1.32 18 -2 18 C-2 17.34 -2 16.68 -2 16 C-1.34 16 -0.68 16 0 16 C0 14.68 0 13.36 0 12 C0.66 12 1.32 12 2 12 C2 10.68 2 9.36 2 8 C1.34 8 0.68 8 0 8 C0 7.34 0 6.68 0 6 C-0.66 6 -1.32 6 -2 6 C-2 5.34 -2 4.68 -2 4 C-2.66 4 -3.32 4 -4 4 C-4 3.34 -4 2.68 -4 2 C-2.02 2.66 -0.04 3.32 2 4 C2 3.34 2 2.68 2 2 C1.34 2 0.68 2 0 2 C0 1.34 0 0.68 0 0 Z " fill="#A88F87" transform="translate(55,76)"/>
<path d="M0 0 C0.66 0 1.32 0 2 0 C2 1.32 2 2.64 2 4 C2.66 4 3.32 4 4 4 C4 3.34 4 2.68 4 2 C6.86724686 2.57344937 7.8614515 2.8614515 10 5 C10.66 5.33 11.32 5.66 12 6 C12.484375 8.43359375 12.484375 8.43359375 12.75 11.4375 C12.89695312 12.92056641 12.89695312 12.92056641 13.046875 14.43359375 C13 17 13 17 11 19 C10.855625 18.05125 10.71125 17.1025 10.5625 16.125 C10.17064601 13.1065506 10.17064601 13.1065506 9 11 C8.34 11 7.68 11 7 11 C7 10.01 7 9.02 7 8 C6.34 8 5.68 8 5 8 C5 10.97 5 13.94 5 17 C4.01 17 3.02 17 2 17 C2 16.01 2 15.02 2 14 C2.66 14 3.32 14 4 14 C4 13.34 4 12.68 4 12 C3.34 12 2.68 12 2 12 C1.67 13.32 1.34 14.64 1 16 C0.34 16 -0.32 16 -1 16 C-1.02712153 14.083412 -1.04645097 12.1667127 -1.0625 10.25 C-1.07410156 9.18265625 -1.08570312 8.1153125 -1.09765625 7.015625 C-1.01510087 4.46631499 -0.74617558 2.42066409 0 0 Z " fill="#3B8D36" transform="translate(1,126)"/>
<path d="M0 0 C0.66 0 1.32 0 2 0 C2 0.66 2 1.32 2 2 C2.66 2 3.32 2 4 2 C4 1.34 4 0.68 4 0 C4.66 0 5.32 0 6 0 C6 0.66 6 1.32 6 2 C6.66 2 7.32 2 8 2 C8.48828125 3.98567708 8.9765625 5.97135417 9.46484375 7.95703125 C9.91010705 9.65683202 10.44433985 11.33301954 11 13 C7.36576791 15.32590854 4.22911669 15.16265833 0 15 C-0.19448477 12.87562788 -0.38038289 10.75046809 -0.5625 8.625 C-0.66691406 7.44164062 -0.77132812 6.25828125 -0.87890625 5.0390625 C-1 2 -1 2 0 0 Z " fill="#4B9430" transform="translate(101,128)"/>
<path d="M0 0 C0.99 0 1.98 0 3 0 C2.67 1.98 2.34 3.96 2 6 C2.66 5.34 3.32 4.68 4 4 C4 3.34 4 2.68 4 2 C4.99 2 5.98 2 7 2 C7 2.66 7 3.32 7 4 C7.66 4 8.32 4 9 4 C9 3.34 9 2.68 9 2 C9.99 2 10.98 2 12 2 C12.33 3.98 12.66 5.96 13 8 C12.34 8 11.68 8 11 8 C11 9.32 11 10.64 11 12 C7.7 12 4.4 12 1 12 C1 11.34 1 10.68 1 10 C0.34 10 -0.32 10 -1 10 C-2.23076923 4.58461538 -2.23076923 4.58461538 -1.0625 1.625 C-0.5365625 0.820625 -0.5365625 0.820625 0 0 Z " fill="#28211C" transform="translate(112,118)"/>
<path d="M0 0 C0.66 0 1.32 0 2 0 C3.76462683 3.08809695 4 4.23312136 4 8 C3.34 8 2.68 8 2 8 C2 9.32 2 10.64 2 12 C1.34 12 0.68 12 0 12 C0 12.99 0 13.98 0 15 C-1.65 15.33 -3.3 15.66 -5 16 C-4.34 14.68 -3.68 13.36 -3 12 C-3 12.66 -3 13.32 -3 14 C-2.34 14 -1.68 14 -1 14 C-1.33 13.01 -1.66 12.02 -2 11 C-3.65 10.67 -5.3 10.34 -7 10 C-7 10.66 -7 11.32 -7 12 C-7.66 12 -8.32 12 -9 12 C-9.33 9.36 -9.66 6.72 -10 4 C-9.01 4 -8.02 4 -7 4 C-7 4.66 -7 5.32 -7 6 C-6.34 6 -5.68 6 -5 6 C-5 5.34 -5 4.68 -5 4 C-4.34 4 -3.68 4 -3 4 C-3 3.34 -3 2.68 -3 2 C-2.01 2 -1.02 2 0 2 C0 1.34 0 0.68 0 0 Z " fill="#9F3A2B" transform="translate(81,76)"/>
<path d="M0 0 C0.99 0.33 1.98 0.66 3 1 C3.12375 2.175625 3.12375 2.175625 3.25 3.375 C3.72806339 6.14749104 3.72806339 6.14749104 6.0625 7.3125 C6.701875 7.539375 7.34125 7.76625 8 8 C8 8.99 8 9.98 8 11 C7.34 11 6.68 11 6 11 C6 10.34 6 9.68 6 9 C5.34 9 4.68 9 4 9 C4.33 10.32 4.66 11.64 5 13 C4.34 13 3.68 13 3 13 C2.67 13.66 2.34 14.32 2 15 C1.34 15 0.68 15 0 15 C0 13.68 0 12.36 0 11 C-0.99 11 -1.98 11 -3 11 C-3 12.32 -3 13.64 -3 15 C-3.99 15 -4.98 15 -6 15 C-6 14.01 -6 13.02 -6 12 C-6.66 12 -7.32 12 -8 12 C-8 11.34 -8 10.68 -8 10 C-6.35 9.34 -4.7 8.68 -3 8 C-3 8.66 -3 9.32 -3 10 C-2.34 10 -1.68 10 -1 10 C-1.391875 9.0925 -1.78375 8.185 -2.1875 7.25 C-3 4 -3 4 -1.625 1.625 C-1.08875 1.08875 -0.5525 0.5525 0 0 Z " fill="#388834" transform="translate(136,130)"/>
<path d="M0 0 C0.66 0 1.32 0 2 0 C2 0.66 2 1.32 2 2 C4.64 2 7.28 2 10 2 C10 3.32 10 4.64 10 6 C9.34 6.66 8.68 7.32 8 8 C7.53993654 10.20250992 7.53993654 10.20250992 7.375 12.625 C7.30023438 13.44226563 7.22546875 14.25953125 7.1484375 15.1015625 C7.09945312 15.72804688 7.05046875 16.35453125 7 17 C6.67 17 6.34 17 6 17 C6 15.02 6 13.04 6 11 C3.03 10.505 3.03 10.505 0 10 C0 12.31 0 14.62 0 17 C-0.33 17 -0.66 17 -1 17 C-1.02691685 14.54159395 -1.04679802 12.08348118 -1.0625 9.625 C-1.07087891 8.92632812 -1.07925781 8.22765625 -1.08789062 7.5078125 C-1.11328125 2.2265625 -1.11328125 2.2265625 0 0 Z " fill="#CC5936" transform="translate(70,109)"/>
<path d="M0 0 C0 0.66 0 1.32 0 2 C0.66 2 1.32 2 2 2 C2.33 4.64 2.66 7.28 3 10 C1.68 10 0.36 10 -1 10 C-1 9.34 -1 8.68 -1 8 C-2.98 8.99 -2.98 8.99 -5 10 C-5.99 9.34 -6.98 8.68 -8 8 C-8 7.34 -8 6.68 -8 6 C-8.66 6 -9.32 6 -10 6 C-10 4.35 -10 2.7 -10 1 C-2.25 0 -2.25 0 0 0 Z " fill="#F87D42" transform="translate(131,91)"/>
<path d="M0 0 C0.66 0.66 1.32 1.32 2 2 C1.67292432 4.37129865 0.87432317 6.29571019 -0.0625 8.5 C-1.23408229 11.17921926 -1.23408229 11.17921926 -1 15 C-1.99 14.67 -2.98 14.34 -4 14 C-4.5 12 -4.5 12 -5 10 C-5.99 9.67 -6.98 9.34 -8 9 C-8.6875 6.9375 -8.6875 6.9375 -9 5 C-9 6.65 -9 8.3 -9 10 C-9.66 10 -10.32 10 -11 10 C-11.125 4.25 -11.125 4.25 -10 2 C-6.7 2.33 -3.4 2.66 0 3 C0 2.01 0 1.02 0 0 Z " fill="#2B7E34" transform="translate(82,132)"/>
<path d="M0 0 C0.99 0 1.98 0 3 0 C3 0.66 3 1.32 3 2 C3.66 2 4.32 2 5 2 C5 2.66 5 3.32 5 4 C5.66 4 6.32 4 7 4 C7 4.66 7 5.32 7 6 C7.66 6 8.32 6 9 6 C9.33 6.99 9.66 7.98 10 9 C9.34 9 8.68 9 8 9 C8 8.34 8 7.68 8 7 C7.34 7 6.68 7 6 7 C5.67 8.98 5.34 10.96 5 13 C3.68 13 2.36 13 1 13 C0.67 13.66 0.34 14.32 0 15 C0 13.68 0 12.36 0 11 C-3.3 11 -6.6 11 -10 11 C-8.68 10.67 -7.36 10.34 -6 10 C-6 9.34 -6 8.68 -6 8 C-4.02 8 -2.04 8 0 8 C0.66 5.69 1.32 3.38 2 1 C1.34 0.67 0.68 0.34 0 0 Z " fill="#8F3926" transform="translate(97,88)"/>
<path d="M0 0 C3.96 0 7.92 0 12 0 C12 0.66 12 1.32 12 2 C10.02 2 8.04 2 6 2 C6 2.66 6 3.32 6 4 C6.66 4 7.32 4 8 4 C8 4.66 8 5.32 8 6 C9.32 6 10.64 6 12 6 C12 6.66 12 7.32 12 8 C9.36 8 6.72 8 4 8 C4 7.34 4 6.68 4 6 C3.34 6 2.68 6 2 6 C1.67 10.95 1.34 15.9 1 21 C0.67 21 0.34 21 0 21 C0 17.37 0 13.74 0 10 C-0.66 10 -1.32 10 -2 10 C-2 9.34 -2 8.68 -2 8 C-1.34 8 -0.68 8 0 8 C0 5.36 0 2.72 0 0 Z " fill="#312722" transform="translate(68,103)"/>
<path d="M0 0 C0.66 0 1.32 0 2 0 C2 0.66 2 1.32 2 2 C2.66 2 3.32 2 4 2 C4 2.99 4 3.98 4 5 C4.66 5 5.32 5 6 5 C6 5.99 6 6.98 6 8 C4.02 8 2.04 8 0 8 C-0.33 9.32 -0.66 10.64 -1 12 C-2.98 12 -4.96 12 -7 12 C-7 12.66 -7 13.32 -7 14 C-8.32 14 -9.64 14 -11 14 C-10.67 12.68 -10.34 11.36 -10 10 C-9.01 10 -8.02 10 -7 10 C-7 9.34 -7 8.68 -7 8 C-6.34 8 -5.68 8 -5 8 C-5 7.34 -5 6.68 -5 6 C-3.68 6 -2.36 6 -1 6 C-0.67 4.02 -0.34 2.04 0 0 Z " fill="#351E19" transform="translate(103,95)"/>
<path d="M0 0 C0.33 0.66 0.66 1.32 1 2 C1.66 2 2.32 2 3 2 C3.33 4.31 3.66 6.62 4 9 C3.01 9 2.02 9 1 9 C1.99 10.485 1.99 10.485 3 12 C3 12.99 3 13.98 3 15 C3.66 15 4.32 15 5 15 C5 15.99 5 16.98 5 18 C3.35 18.33 1.7 18.66 0 19 C0.66 19.33 1.32 19.66 2 20 C-0.31 20 -2.62 20 -5 20 C-4.01 18.515 -4.01 18.515 -3 17 C-2.67 17.33 -2.34 17.66 -2 18 C-1.34 15.69 -0.68 13.38 0 11 C-0.66 11 -1.32 11 -2 11 C-1.67 9.35 -1.34 7.7 -1 6 C-1.66 6 -2.32 6 -3 6 C-3 4.68 -3 3.36 -3 2 C-2.34 2 -1.68 2 -1 2 C-0.67 1.34 -0.34 0.68 0 0 Z " fill="#156F48" transform="translate(36,130)"/>
<path d="M0 0 C0.66 0 1.32 0 2 0 C2 0.66 2 1.32 2 2 C2.66 2 3.32 2 4 2 C4 2.99 4 3.98 4 5 C3.34 5 2.68 5 2 5 C1.67 5.99 1.34 6.98 1 8 C0.01 8.66 -0.98 9.32 -2 10 C-2.72382467 12.05925139 -2.72382467 12.05925139 -3 14 C-3.66 14 -4.32 14 -5 14 C-5.33 14.66 -5.66 15.32 -6 16 C-9 11.375 -9 11.375 -9 8 C-7.68 7.67 -6.36 7.34 -5 7 C-5 6.01 -5 5.02 -5 4 C-4.34 4 -3.68 4 -3 4 C-3 3.34 -3 2.68 -3 2 C-2.01 2 -1.02 2 0 2 C0 1.34 0 0.68 0 0 Z " fill="#FBF1DE" transform="translate(66,86)"/>
<path d="M0 0 C1.98 0 3.96 0 6 0 C6 4.29 6 8.58 6 13 C5.34 13 4.68 13 4 13 C3.67 11.68 3.34 10.36 3 9 C2.67 11.31 2.34 13.62 2 16 C1.67 15.01 1.34 14.02 1 13 C0.34 13 -0.32 13 -1 13 C-1.0272415 11.58344207 -1.04650467 10.16672955 -1.0625 8.75 C-1.07410156 7.96109375 -1.08570312 7.1721875 -1.09765625 6.359375 C-1.00385306 4.09308998 -0.63241063 2.1711105 0 0 Z " fill="#348732" transform="translate(116,130)"/>
<path d="M0 0 C1.98 0 3.96 0 6 0 C6 0.66 6 1.32 6 2 C7.32 2 8.64 2 10 2 C10 2.66 10 3.32 10 4 C9.34 4 8.68 4 8 4 C8 4.66 8 5.32 8 6 C7.34 6 6.68 6 6 6 C6 6.66 6 7.32 6 8 C5.34 8 4.68 8 4 8 C4 8.99 4 9.98 4 11 C3.34 11 2.68 11 2 11 C2 12.32 2 13.64 2 15 C1.34 15 0.68 15 0 15 C0 10.05 0 5.1 0 0 Z " fill="#F29154" transform="translate(83,109)"/>
<path d="M0 0 C0.33 0.66 0.66 1.32 1 2 C1.66 2 2.32 2 3 2 C2.51669316 8.52464229 2.51669316 8.52464229 0.4375 10.4375 C-3.18326684 11.27306158 -6.2737751 11.23658571 -10 11 C-10.99 10.34 -11.98 9.68 -13 9 C-12.34 8.67 -11.68 8.34 -11 8 C-9.86649466 5.98330173 -9.86649466 5.98330173 -9 4 C-8.67 4.66 -8.34 5.32 -8 6 C-7.01 6.33 -6.02 6.66 -5 7 C-4.67 6.01 -4.34 5.02 -4 4 C-1.9375 3.3125 -1.9375 3.3125 0 3 C0 2.01 0 1.02 0 0 Z " fill="#036541" transform="translate(33,139)"/>
<path d="M0 0 C1.65 0 3.3 0 5 0 C5 0.66 5 1.32 5 2 C5.66 2 6.32 2 7 2 C7 11.24 7 20.48 7 30 C7.66 30 8.32 30 9 30 C8.67 30.99 8.34 31.98 8 33 C8 32.34 8 31.68 8 31 C7.34 31 6.68 31 6 31 C5.67 25.72 5.34 20.44 5 15 C4.34 15 3.68 15 3 15 C3 15.66 3 16.32 3 17 C2.01 17 1.02 17 0 17 C0 16.34 0 15.68 0 15 C-0.66 15 -1.32 15 -2 15 C-2 14.34 -2 13.68 -2 13 C-2.66 12.67 -3.32 12.34 -4 12 C-3.01 12 -2.02 12 -1 12 C-1 12.66 -1 13.32 -1 14 C0.65 14 2.3 14 4 14 C4 10.37 4 6.74 4 3 C2.68 3 1.36 3 0 3 C0 2.01 0 1.02 0 0 Z " fill="#6C5C55" transform="translate(78,49)"/>
<path d="M0 0 C2.38564077 0.57584432 4.66682784 1.22227595 7 2 C7 1.34 7 0.68 7 0 C7.66 0 8.32 0 9 0 C9 0.66 9 1.32 9 2 C9.66 2 10.32 2 11 2 C11 2.66 11 3.32 11 4 C11.66 4 12.32 4 13 4 C13 4.66 13 5.32 13 6 C12.34 6 11.68 6 11 6 C11 6.99 11 7.98 11 9 C9.68 9 8.36 9 7 9 C7 8.01 7 7.02 7 6 C6.01 6 5.02 6 4 6 C4 6.99 4 7.98 4 9 C3.34 9 2.68 9 2 9 C2 7.68 2 6.36 2 5 C1.01 5 0.02 5 -1 5 C-0.67 3.35 -0.34 1.7 0 0 Z " fill="#47922E" transform="translate(53,132)"/>
<path d="M0 0 C0.66 0 1.32 0 2 0 C2.66 1.98 3.32 3.96 4 6 C4.99 6 5.98 6 7 6 C7.33 7.98 7.66 9.96 8 12 C5.525 11.01 5.525 11.01 3 10 C2.67 12.31 2.34 14.62 2 17 C2.66 17 3.32 17 4 17 C3.34 18.32 2.68 19.64 2 21 C1.04972401 18.14917204 0.70808784 15.78896626 0.4375 12.8125 C0.35371094 11.91144531 0.26992187 11.01039063 0.18359375 10.08203125 C0.12300781 9.39496094 0.06242188 8.70789063 0 8 C-0.99 7.67 -1.98 7.34 -3 7 C-2.25 2.25 -2.25 2.25 0 0 Z " fill="#6FAC59" transform="translate(12,124)"/>
<path d="M0 0 C0.598125 0.45375 1.19625 0.9075 1.8125 1.375 C3.50590652 2.63295913 5.24477086 3.82984724 7 5 C6.01 5 5.02 5 4 5 C4.33 6.98 4.66 8.96 5 11 C5.94875 10.814375 6.8975 10.62875 7.875 10.4375 C11 10 11 10 13 11 C13 11.66 13 12.32 13 13 C12.01 13 11.02 13 10 13 C9.01 14.485 9.01 14.485 8 16 C8.33 16.66 8.66 17.32 9 18 C7.35 18 5.7 18 4 18 C4 15.36 4 12.72 4 10 C2.68 9.67 1.36 9.34 0 9 C0 6.03 0 3.06 0 0 Z " fill="#237959" transform="translate(14,132)"/>
<path d="M0 0 C2.97 0.495 2.97 0.495 6 1 C6 2.98 6 4.96 6 7 C5.34 7 4.68 7 4 7 C4 8.32 4 9.64 4 11 C3.34 11 2.68 11 2 11 C2 10.34 2 9.68 2 9 C1.34 9 0.68 9 0 9 C0 9.66 0 10.32 0 11 C-0.66 11 -1.32 11 -2 11 C-2 10.34 -2 9.68 -2 9 C-2.66 9 -3.32 9 -4 9 C-4 9.66 -4 10.32 -4 11 C-4.66 11 -5.32 11 -6 11 C-5.67 9.68 -5.34 8.36 -5 7 C-3.35 7 -1.7 7 0 7 C0 4.69 0 2.38 0 0 Z " fill="#DDC9B9" transform="translate(70,119)"/>
<path d="M0 0 C0.66 0 1.32 0 2 0 C2 0.99 2 1.98 2 3 C2.66 3.33 3.32 3.66 4 4 C3.34 4 2.68 4 2 4 C2 4.99 2 5.98 2 7 C1.34 7 0.68 7 0 7 C0 7.66 0 8.32 0 9 C0.66 9 1.32 9 2 9 C2 10.32 2 11.64 2 13 C2.66 13 3.32 13 4 13 C4 13.66 4 14.32 4 15 C3.34 15 2.68 15 2 15 C1.67 15.66 1.34 16.32 1 17 C1 16.34 1 15.68 1 15 C0.01 15 -0.98 15 -2 15 C-3.125 9.25 -3.125 9.25 -2 7 C-2.66 7 -3.32 7 -4 7 C-4 6.34 -4 5.68 -4 5 C-3.34 5 -2.68 5 -2 5 C-2 4.01 -2 3.02 -2 2 C-1.34 2 -0.68 2 0 2 C0 1.34 0 0.68 0 0 Z " fill="#F4E9D6" transform="translate(57,61)"/>
<path d="M0 0 C2.64 0 5.28 0 8 0 C8 0.66 8 1.32 8 2 C8.66 2 9.32 2 10 2 C10 2.99 10 3.98 10 5 C6.78548731 6.60725635 3.56387464 6.05748185 0 6 C0 6.66 0 7.32 0 8 C-0.66 8 -1.32 8 -2 8 C-2 6.02 -2 4.04 -2 2 C-1.34 2 -0.68 2 0 2 C0 1.34 0 0.68 0 0 Z " fill="#773224" transform="translate(121,86)"/>
<path d="M0 0 C1.98 0 3.96 0 6 0 C5.67 1.65 5.34 3.3 5 5 C5.66 5 6.32 5 7 5 C7 5.99 7 6.98 7 8 C7.66 8 8.32 8 9 8 C9 8.66 9 9.32 9 10 C8.01 10 7.02 10 6 10 C6 9.34 6 8.68 6 8 C5.34 8 4.68 8 4 8 C4 9.32 4 10.64 4 12 C3.34 12 2.68 12 2 12 C2 10.68 2 9.36 2 8 C1.34 8 0.68 8 0 8 C0 7.34 0 6.68 0 6 C-0.66 6 -1.32 6 -2 6 C-2 5.34 -2 4.68 -2 4 C-2.66 4 -3.32 4 -4 4 C-4 3.34 -4 2.68 -4 2 C-2.02 2.66 -0.04 3.32 2 4 C2 3.34 2 2.68 2 2 C1.34 2 0.68 2 0 2 C0 1.34 0 0.68 0 0 Z " fill="#524E4D" transform="translate(55,76)"/>
<path d="M0 0 C0.99 0 1.98 0 3 0 C3 0.66 3 1.32 3 2 C3.66 2 4.32 2 5 2 C5 3.32 5 4.64 5 6 C5.66 6.33 6.32 6.66 7 7 C6.01 8.32 5.02 9.64 4 11 C4.33 11.66 4.66 12.32 5 13 C3.35 13 1.7 13 0 13 C0 12.34 0 11.68 0 11 C-1.32 11.33 -2.64 11.66 -4 12 C-4 11.34 -4 10.68 -4 10 C-3.01 10 -2.02 10 -1 10 C-0.67 6.7 -0.34 3.4 0 0 Z " fill="#472A23" transform="translate(61,47)"/>
<path d="M0 0 C0.33 0.99 0.66 1.98 1 3 C1.66 3 2.32 3 3 3 C3.17942163 6.94727588 3.09350689 9.5980513 1 13 C0.34 13 -0.32 13 -1 13 C-0.67 11.68 -0.34 10.36 0 9 C-0.99 9 -1.98 9 -3 9 C-3 10.32 -3 11.64 -3 13 C-3.99 13 -4.98 13 -6 13 C-5.67 11.35 -5.34 9.7 -5 8 C-4.34 8 -3.68 8 -3 8 C-3 5.69 -3 3.38 -3 1 C-2.01 0.67 -1.02 0.34 0 0 Z " fill="#1476B6" transform="translate(40,42)"/>
<path d="M0 0 C0.66 0 1.32 0 2 0 C2 2.97 2 5.94 2 9 C2.66 9 3.32 9 4 9 C4.1875 11.875 4.1875 11.875 4 15 C3.01 15.66 2.02 16.32 1 17 C0.34 17.99 -0.32 18.98 -1 20 C-1.33 19.01 -1.66 18.02 -2 17 C-1.67 16.34 -1.34 15.68 -1 15 C-1.66 15 -2.32 15 -3 15 C-3 13.68 -3 12.36 -3 11 C-2.34 11 -1.68 11 -1 11 C-1.01160156 10.28972656 -1.02320312 9.57945313 -1.03515625 8.84765625 C-1.04417969 7.92855469 -1.05320312 7.00945312 -1.0625 6.0625 C-1.07410156 5.14597656 -1.08570312 4.22945313 -1.09765625 3.28515625 C-1 1 -1 1 0 0 Z " fill="#354E54" transform="translate(78,115)"/>
<path d="M0 0 C0.99 0 1.98 0 3 0 C3 0.66 3 1.32 3 2 C3.66 2 4.32 2 5 2 C5 2.99 5 3.98 5 5 C4.34 5 3.68 5 3 5 C3 5.66 3 6.32 3 7 C2.34 7 1.68 7 1 7 C1 8.32 1 9.64 1 11 C-0.32 11 -1.64 11 -3 11 C-3 11.66 -3 12.32 -3 13 C-3.99 13.33 -4.98 13.66 -6 14 C-6.66 14.66 -7.32 15.32 -8 16 C-7.67 14.35 -7.34 12.7 -7 11 C-6.34 11 -5.68 11 -5 11 C-4.67 9.68 -4.34 8.36 -4 7 C-3.34 7 -2.68 7 -2 7 C-2 6.34 -2 5.68 -2 5 C-1.34 5 -0.68 5 0 5 C0 3.35 0 1.7 0 0 Z " fill="#090E12" transform="translate(46,44)"/>
<path d="M0 0 C0.66 0 1.32 0 2 0 C2 0.66 2 1.32 2 2 C3.32 2 4.64 2 6 2 C5.67 3.32 5.34 4.64 5 6 C2.61435923 5.42415568 0.33317216 4.77772405 -2 4 C-2.33 5.65 -2.66 7.3 -3 9 C-2.01 9 -1.02 9 0 9 C0 10.98 0 12.96 0 15 C-1.65 14.67 -3.3 14.34 -5 14 C-4.34 13.67 -3.68 13.34 -3 13 C-3.495 11.906875 -3.99 10.81375 -4.5 9.6875 C-6 6 -6 6 -6 3 C-5.195625 2.87625 -4.39125 2.7525 -3.5625 2.625 C-2.716875 2.41875 -1.87125 2.2125 -1 2 C-0.67 1.34 -0.34 0.68 0 0 Z " fill="#2D7E49" transform="translate(55,128)"/>
<path d="M0 0 C1.32 0 2.64 0 4 0 C4 1.32 4 2.64 4 4 C3.01 4 2.02 4 1 4 C1 4.66 1 5.32 1 6 C-0.32 6 -1.64 6 -3 6 C-3 6.66 -3 7.32 -3 8 C-4.98 8 -6.96 8 -9 8 C-9.33 8.66 -9.66 9.32 -10 10 C-10 9.34 -10 8.68 -10 8 C-11.32 8 -12.64 8 -14 8 C-14 7.34 -14 6.68 -14 6 C-13.34 6 -12.68 6 -12 6 C-12 4.68 -12 3.36 -12 2 C-11.34 2 -10.68 2 -10 2 C-10.33 3.32 -10.66 4.64 -11 6 C-9.68 6 -8.36 6 -7 6 C-7 5.34 -7 4.68 -7 4 C-5.02 4 -3.04 4 -1 4 C-0.67 2.68 -0.34 1.36 0 0 Z " fill="#C74C33" transform="translate(103,103)"/>
<path d="M0 0 C0.66 0 1.32 0 2 0 C2 0.66 2 1.32 2 2 C2.66 2 3.32 2 4 2 C4 2.66 4 3.32 4 4 C4.66 4 5.32 4 6 4 C6.33 2.68 6.66 1.36 7 0 C7 3.3 7 6.6 7 10 C6.67 9.34 6.34 8.68 6 8 C5.34 8 4.68 8 4 8 C4 8.66 4 9.32 4 10 C2.35 10 0.7 10 -1 10 C-1.33 8.02 -1.66 6.04 -2 4 C-1.34 4 -0.68 4 0 4 C0 2.68 0 1.36 0 0 Z " fill="#5BA63C" transform="translate(143,126)"/>
<path d="M0 0 C0 0.66 0 1.32 0 2 C0.66 2 1.32 2 2 2 C2 4.64 2 7.28 2 10 C1.34 10 0.68 10 0 10 C0 9.34 0 8.68 0 8 C-0.66 8 -1.32 8 -2 8 C-2 6.68 -2 5.36 -2 4 C-2.66 4 -3.32 4 -4 4 C-4 4.66 -4 5.32 -4 6 C-5.65 6 -7.3 6 -9 6 C-9 6.66 -9 7.32 -9 8 C-10.32 8 -11.64 8 -13 8 C-13 7.01 -13 6.02 -13 5 C-11.68 5 -10.36 5 -9 5 C-9 4.34 -9 3.68 -9 3 C-7.35 3 -5.7 3 -4 3 C-4 2.34 -4 1.68 -4 1 C-2 0 -2 0 0 0 Z " fill="#715453" transform="translate(53,66)"/>
<path d="M0 0 C0 0.66 0 1.32 0 2 C1.65 2 3.3 2 5 2 C4.01 2.495 4.01 2.495 3 3 C3 3.99 3 4.98 3 6 C4.32 6.33 5.64 6.66 7 7 C7 7.99 7 8.98 7 10 C6.34 10 5.68 10 5 10 C5 9.34 5 8.68 5 8 C2.69 8 0.38 8 -2 8 C-2 6.35 -2 4.7 -2 3 C-2.66 3 -3.32 3 -4 3 C-4 3.66 -4 4.32 -4 5 C-4.66 5 -5.32 5 -6 5 C-6 5.66 -6 6.32 -6 7 C-6.66 7 -7.32 7 -8 7 C-8 5.68 -8 4.36 -8 3 C-7.34 3 -6.68 3 -6 3 C-6 2.34 -6 1.68 -6 1 C-3.92446352 0.4465236 -2.15634036 0 0 0 Z " fill="#B1784A" transform="translate(61,58)"/>
<path d="M0 0 C0.66 0 1.32 0 2 0 C2 0.66 2 1.32 2 2 C2.66 2 3.32 2 4 2 C4.33 5.63 4.66 9.26 5 13 C4.01 12.67 3.02 12.34 2 12 C2 10.35 2 8.7 2 7 C-0.86724686 7.57344937 -1.8614515 7.8614515 -4 10 C-4 7.36 -4 4.72 -4 2 C-2.68 2 -1.36 2 0 2 C0 1.34 0 0.68 0 0 Z " fill="#7FB96F" transform="translate(137,124)"/>
<path d="M0 0 C0.66 0 1.32 0 2 0 C3.125 5.75 3.125 5.75 2 8 C2.66 8 3.32 8 4 8 C4.66 6.68 5.32 5.36 6 4 C6 5.65 6 7.3 6 9 C5.01 9.33 4.02 9.66 3 10 C3 10.66 3 11.32 3 12 C3.99 12.33 4.98 12.66 6 13 C5.67 13.66 5.34 14.32 5 15 C3.35 15 1.7 15 0 15 C-0.19448477 12.87562788 -0.38038289 10.75046809 -0.5625 8.625 C-0.66691406 7.44164062 -0.77132812 6.25828125 -0.87890625 5.0390625 C-1 2 -1 2 0 0 Z " fill="#32843E" transform="translate(101,128)"/>
<path d="M0 0 C0.66 0 1.32 0 2 0 C2.33 2.64 2.66 5.28 3 8 C3.66 8 4.32 8 5 8 C5 8.66 5 9.32 5 10 C3.68 10 2.36 10 1 10 C1 12.97 1 15.94 1 19 C0.34 19 -0.32 19 -1 19 C-1.66 17.02 -2.32 15.04 -3 13 C-2.01 13 -1.02 13 0 13 C-0.33 10.69 -0.66 8.38 -1 6 C-1.66 6 -2.32 6 -3 6 C-3 5.34 -3 4.68 -3 4 C-2.01 4 -1.02 4 0 4 C0 2.68 0 1.36 0 0 Z " fill="#559C35" transform="translate(40,126)"/>
<path d="M0 0 C0.56203125 0.14308594 1.1240625 0.28617187 1.703125 0.43359375 C4.04545453 1.01120902 6.39417659 1.54283307 8.75 2.0625 C9.54921875 2.23910156 10.3484375 2.41570312 11.171875 2.59765625 C11.77515625 2.73042969 12.3784375 2.86320312 13 3 C12.01 3.33 11.02 3.66 10 4 C10 4.66 10 5.32 10 6 C7.03 5.67 4.06 5.34 1 5 C1.33 6.98 1.66 8.96 2 11 C0.02 11 -1.96 11 -4 11 C-4 9.68 -4 8.36 -4 7 C-2.68 7.33 -1.36 7.66 0 8 C0 5.36 0 2.72 0 0 Z " fill="#4E3528" transform="translate(72,92)"/>
<path d="M0 0 C1 3 1 3 1 5 C1.66 5 2.32 5 3 5 C3 5.66 3 6.32 3 7 C1.68 7 0.36 7 -1 7 C-0.67 8.32 -0.34 9.64 0 11 C-0.66 11 -1.32 11 -2 11 C-2.33 11.66 -2.66 12.32 -3 13 C-3.33 12.67 -3.66 12.34 -4 12 C-4.66 12.66 -5.32 13.32 -6 14 C-6 9.71 -6 5.42 -6 1 C-5.67 1 -5.34 1 -5 1 C-5 2.98 -5 4.96 -5 7 C-4.01 7 -3.02 7 -2 7 C-2 6.34 -2 5.68 -2 5 C-2.66 5 -3.32 5 -4 5 C-4 3.68 -4 2.36 -4 1 C-2.68 0.67 -1.36 0.34 0 0 Z " fill="#056640" transform="translate(128,129)"/>
<path d="M0 0 C1.32 0 2.64 0 4 0 C3.1875 2.4375 3.1875 2.4375 2 5 C1.01 5.33 0.02 5.66 -1 6 C-1.66 5.67 -2.32 5.34 -3 5 C-2.505 6.093125 -2.01 7.18625 -1.5 8.3125 C0 12 0 12 0 15 C-0.66 15 -1.32 15 -2 15 C-2.33 13.35 -2.66 11.7 -3 10 C-3.66 10 -4.32 10 -5 10 C-5.33 9.01 -5.66 8.02 -6 7 C-6.66 6.67 -7.32 6.34 -8 6 C-8 4.68 -8 3.36 -8 2 C-7.34 2 -6.68 2 -6 2 C-6 2.66 -6 3.32 -6 4 C-4.68 4 -3.36 4 -2 4 C-2 3.34 -2 2.68 -2 2 C-1.34 2 -0.68 2 0 2 C0 1.34 0 0.68 0 0 Z " fill="#549D2F" transform="translate(52,126)"/>
<path d="M0 0 C0.99 0 1.98 0 3 0 C3 1.32 3 2.64 3 4 C3.33 4.33 3.66 4.66 4 5 C4.04080783 6.99958364 4.04254356 9.00045254 4 11 C3.01 11.33 2.02 11.66 1 12 C1.33 10.35 1.66 8.7 2 7 C0.68 7 -0.64 7 -2 7 C-2.33 7.66 -2.66 8.32 -3 9 C-3 8.01 -3 7.02 -3 6 C-5.31 6 -7.62 6 -10 6 C-10 5.34 -10 4.68 -10 4 C-6.7 4 -3.4 4 0 4 C0 2.68 0 1.36 0 0 Z " fill="#151310" transform="translate(103,111)"/>
<path d="M0 0 C0.66 0 1.32 0 2 0 C2 4.95 2 9.9 2 15 C3.65 15 5.3 15 7 15 C7.33 15.99 7.66 16.98 8 18 C6.68 18.33 5.36 18.66 4 19 C4 18.34 4 17.68 4 17 C3.01 16.67 2.02 16.34 1 16 C1 15.01 1 14.02 1 13 C0.34 13 -0.32 13 -1 13 C-1 12.01 -1 11.02 -1 10 C-0.34 10 0.32 10 1 10 C1 9.34 1 8.68 1 8 C0.01 8 -0.98 8 -2 8 C-1.47731534 5.23723823 -0.89130413 2.6739124 0 0 Z " fill="#7CB065" transform="translate(99,128)"/>
<path d="M0 0 C3.3 0 6.6 0 10 0 C10 0.66 10 1.32 10 2 C10.99 2 11.98 2 13 2 C13 2.66 13 3.32 13 4 C11.02 4 9.04 4 7 4 C7 4.66 7 5.32 7 6 C6.01 6 5.02 6 4 6 C4 4.68 4 3.36 4 2 C3.34 2 2.68 2 2 2 C2 2.66 2 3.32 2 4 C0.68 4 -0.64 4 -2 4 C-2 3.34 -2 2.68 -2 2 C-1.34 2 -0.68 2 0 2 C0 1.34 0 0.68 0 0 Z " fill="#BEB797" transform="translate(85,126)"/>
<path d="M0 0 C0.66 0 1.32 0 2 0 C1.98839844 0.59167969 1.97679688 1.18335938 1.96484375 1.79296875 C1.91677614 6.00231785 1.93993117 9.8922333 3 14 C1.02 14.33 -0.96 14.66 -3 15 C-2.67 12.69 -2.34 10.38 -2 8 C-1.34 8 -0.68 8 0 8 C0 6.68 0 5.36 0 4 C-0.66 4 -1.32 4 -2 4 C-2 3.34 -2 2.68 -2 2 C-1.34 2 -0.68 2 0 2 C0 1.34 0 0.68 0 0 Z " fill="#599856" transform="translate(87,128)"/>
<path d="M0 0 C0.66 0 1.32 0 2 0 C2 0.66 2 1.32 2 2 C2.66 2 3.32 2 4 2 C4 2.66 4 3.32 4 4 C3.34 4 2.68 4 2 4 C2 4.66 2 5.32 2 6 C1.34 6 0.68 6 0 6 C0 6.66 0 7.32 0 8 C-0.66 8 -1.32 8 -2 8 C-2 7.34 -2 6.68 -2 6 C-2.66 6 -3.32 6 -4 6 C-4 6.66 -4 7.32 -4 8 C-4.66 8 -5.32 8 -6 8 C-6 6.02 -6 4.04 -6 2 C-4.0625 1.4375 -4.0625 1.4375 -2 1 C-1.67 1.33 -1.34 1.66 -1 2 C-0.67 1.34 -0.34 0.68 0 0 Z " fill="#A84E35" transform="translate(68,72)"/>
<path d="M0 0 C0.66 0.33 1.32 0.66 2 1 C2 3.31 2 5.62 2 8 C1.34 8 0.68 8 0 8 C0 9.32 0 10.64 0 12 C-0.66 12 -1.32 12 -2 12 C-2 13.98 -2 15.96 -2 18 C-2.33 18 -2.66 18 -3 18 C-3.33 13.38 -3.66 8.76 -4 4 C-3.01 3.67 -2.02 3.34 -1 3 C-0.67 2.01 -0.34 1.02 0 0 Z " fill="#38241D" transform="translate(85,97)"/>
<path d="M0 0 C1.65 0 3.3 0 5 0 C5.33 1.32 5.66 2.64 6 4 C5.01 4 4.02 4 3 4 C2.67 4.66 2.34 5.32 2 6 C-0.64860427 6.59355614 -3.29197322 6.74209269 -6 7 C-6 6.34 -6 5.68 -6 5 C-5.34 5 -4.68 5 -4 5 C-4 4.01 -4 3.02 -4 2 C-2.68 2 -1.36 2 0 2 C0 1.34 0 0.68 0 0 Z " fill="#F9AD60" transform="translate(74,86)"/>
<path d="M0 0 C0.99 0 1.98 0 3 0 C2.67 1.98 2.34 3.96 2 6 C1.34 6 0.68 6 0 6 C0 6.99 0 7.98 0 9 C-1.65 9.33 -3.3 9.66 -5 10 C-4.34 8.68 -3.68 7.36 -3 6 C-3 6.66 -3 7.32 -3 8 C-2.34 8 -1.68 8 -1 8 C-1.33 7.01 -1.66 6.02 -2 5 C-3.65 4.67 -5.3 4.34 -7 4 C-7 4.66 -7 5.32 -7 6 C-7.66 6 -8.32 6 -9 6 C-9 4.68 -9 3.36 -9 2 C-6.03 2 -3.06 2 0 2 C0 1.34 0 0.68 0 0 Z " fill="#B94F31" transform="translate(81,82)"/>
<path d="M0 0 C0.33 0.66 0.66 1.32 1 2 C1.99 2 2.98 2 4 2 C4 3.32 4 4.64 4 6 C4.66 6 5.32 6 6 6 C5.67 7.65 5.34 9.3 5 11 C4.67 10.34 4.34 9.68 4 9 C3.01 8.67 2.02 8.34 1 8 C1 7.34 1 6.68 1 6 C-0.32 5.67 -1.64 5.34 -3 5 C-3 4.01 -3 3.02 -3 2 C-2.01 2 -1.02 2 0 2 C0 1.34 0 0.68 0 0 Z " fill="#A95930" transform="translate(62,64)"/>
<path d="M0 0 C1.875 0.3125 1.875 0.3125 4 1 C4.66 1.99 5.32 2.98 6 4 C6.66 4 7.32 4 8 4 C8.33 3.34 8.66 2.68 9 2 C9.99 2.66 10.98 3.32 12 4 C11.34 4 10.68 4 10 4 C10 4.99 10 5.98 10 7 C9.34 7 8.68 7 8 7 C7.67 7.66 7.34 8.32 7 9 C7 8.34 7 7.68 7 7 C5.35 7 3.7 7 2 7 C2 6.34 2 5.68 2 5 C1.34 5 0.68 5 0 5 C0 3.35 0 1.7 0 0 Z " fill="#93D6DD" transform="translate(66,48)"/>
<path d="M0 0 C0.99 0 1.98 0 3 0 C3 0.66 3 1.32 3 2 C3.66 2 4.32 2 5 2 C5 1.34 5 0.68 5 0 C5.99 0 6.98 0 8 0 C8.33 1.98 8.66 3.96 9 6 C8.34 6 7.68 6 7 6 C7 7.32 7 8.64 7 10 C5.68 10 4.36 10 3 10 C3 9.34 3 8.68 3 8 C3.66 8 4.32 8 5 8 C3.13433512 4.37206002 3.13433512 4.37206002 0 2 C0 1.34 0 0.68 0 0 Z " fill="#1F1410" transform="translate(116,120)"/>
<path d="M0 0 C0 1.32 0 2.64 0 4 C-3.3 4 -6.6 4 -10 4 C-10 4.66 -10 5.32 -10 6 C-7.69 6 -5.38 6 -3 6 C-3.33 6.66 -3.66 7.32 -4 8 C-6.97 7.67 -9.94 7.34 -13 7 C-13 6.34 -13 5.68 -13 5 C-12.34 5 -11.68 5 -11 5 C-11 4.34 -11 3.68 -11 3 C-4.5 0 -4.5 0 0 0 Z " fill="#24201C" transform="translate(103,111)"/>
<path d="M0 0 C2.97 0 5.94 0 9 0 C8.67 2.31 8.34 4.62 8 7 C7.34 7 6.68 7 6 7 C6 5.68 6 4.36 6 3 C5.34 3 4.68 3 4 3 C4 4.32 4 5.64 4 7 C3.34 7 2.68 7 2 7 C0.5393715 4.35261084 0 3.10551666 0 0 Z " fill="#8BD5D0" transform="translate(14,123)"/>
<path d="M0 0 C0.66 0.99 1.32 1.98 2 3 C1.01 4.485 1.01 4.485 0 6 C0 6.99 0 7.98 0 9 C-0.66 9 -1.32 9 -2 9 C-2 9.66 -2 10.32 -2 11 C-1.34 11.33 -0.68 11.66 0 12 C-2.64 12 -5.28 12 -8 12 C-8.33 11.01 -8.66 10.02 -9 9 C-7.68 9 -6.36 9 -5 9 C-5 8.34 -5 7.68 -5 7 C-4.01 7 -3.02 7 -2 7 C-2 5.68 -2 4.36 -2 3 C-1.34 3 -0.68 3 0 3 C0 2.01 0 1.02 0 0 Z " fill="#3C312B" transform="translate(109,100)"/>
<path d="M0 0 C1.65 0 3.3 0 5 0 C5 1.66666667 5 3.33333333 5 5 C6.32 5.66 7.64 6.32 9 7 C7.02 7.99 7.02 7.99 5 9 C4.01 8.34 3.02 7.68 2 7 C2 6.34 2 5.68 2 5 C1.34 5 0.68 5 0 5 C0 3.35 0 1.7 0 0 Z " fill="#C87244" transform="translate(121,92)"/>
<path d="M0 0 C0.66 0.99 1.32 1.98 2 3 C2.99 3.33 3.98 3.66 5 4 C4.67 5.32 4.34 6.64 4 8 C3.34 8 2.68 8 2 8 C2 7.34 2 6.68 2 6 C1.01 6 0.02 6 -1 6 C-0.67 7.32 -0.34 8.64 0 10 C-0.66 10 -1.32 10 -2 10 C-2 9.34 -2 8.68 -2 8 C-2.66 8 -3.32 8 -4 8 C-4 6.68 -4 5.36 -4 4 C-3.34 4 -2.68 4 -2 4 C-2 3.34 -2 2.68 -2 2 C-1.34 2 -0.68 2 0 2 C0 1.34 0 0.68 0 0 Z " fill="#2B1D19" transform="translate(72,74)"/>
<path d="M0 0 C2.64 0.33 5.28 0.66 8 1 C7.01 1.495 7.01 1.495 6 2 C6 2.66 6 3.32 6 4 C5.34 4 4.68 4 4 4 C4 4.99 4 5.98 4 7 C3.34 7 2.68 7 2 7 C1.67 5.68 1.34 4.36 1 3 C1 4.65 1 6.3 1 8 C0.34 8 -0.32 8 -1 8 C-1.125 2.25 -1.125 2.25 0 0 Z " fill="#378933" transform="translate(72,134)"/>
<path d="M0 0 C4.75 1.875 4.75 1.875 7 3 C6.67 4.98 6.34 6.96 6 9 C5.01 9.33 4.02 9.66 3 10 C2.34 9.67 1.68 9.34 1 9 C1 8.34 1 7.68 1 7 C1.66 6.67 2.32 6.34 3 6 C3.33 5.01 3.66 4.02 4 3 C3.34 3 2.68 3 2 3 C1.67 3.66 1.34 4.32 1 5 C0.67 3.35 0.34 1.7 0 0 Z " fill="#95B690" transform="translate(26,131)"/>
<path d="M0 0 C0.33 0.66 0.66 1.32 1 2 C1.66 2 2.32 2 3 2 C3.33 4.31 3.66 6.62 4 9 C2.02 9.33 0.04 9.66 -2 10 C-1.67 8.68 -1.34 7.36 -1 6 C-1.66 6 -2.32 6 -3 6 C-3 4.68 -3 3.36 -3 2 C-2.34 2 -1.68 2 -1 2 C-0.67 1.34 -0.34 0.68 0 0 Z " fill="#2B8435" transform="translate(36,130)"/>
<path d="M0 0 C0.66 0 1.32 0 2 0 C2 1.32 2 2.64 2 4 C2.66 4 3.32 4 4 4 C4 3.34 4 2.68 4 2 C4.66 2 5.32 2 6 2 C6.33 3.98 6.66 5.96 7 8 C6.67 7.34 6.34 6.68 6 6 C5.34 6 4.68 6 4 6 C4 6.66 4 7.32 4 8 C1.64828869 7.40138258 -0.6859378 6.73075648 -3 6 C-3.33 5.34 -3.66 4.68 -4 4 C-2.35 4 -0.7 4 1 4 C0.67 2.68 0.34 1.36 0 0 Z " fill="#569D2A" transform="translate(29,126)"/>
<path d="M0 0 C0.66 0 1.32 0 2 0 C2 0.66 2 1.32 2 2 C2.66 2 3.32 2 4 2 C4 2.66 4 3.32 4 4 C6.41645782 4.16687448 6.41645782 4.16687448 9 4 C9.66 3.34 10.32 2.68 11 2 C11 4.64 11 7.28 11 10 C10.34 10 9.68 10 9 10 C9 9.34 9 8.68 9 8 C8.34 8 7.68 8 7 8 C7 7.34 7 6.68 7 6 C5.68 6 4.36 6 3 6 C3 5.01 3 4.02 3 3 C2.01 3 1.02 3 0 3 C0 2.01 0 1.02 0 0 Z " fill="#856E68" transform="translate(57,101)"/>
<path d="M0 0 C0.66 0 1.32 0 2 0 C1.67 5.28 1.34 10.56 1 16 C0.34 16 -0.32 16 -1 16 C-1.02712153 14.083412 -1.04645097 12.1667127 -1.0625 10.25 C-1.07410156 9.18265625 -1.08570312 8.1153125 -1.09765625 7.015625 C-1.01510087 4.46631499 -0.74617558 2.42066409 0 0 Z " fill="#499433" transform="translate(1,126)"/>
<path d="M0 0 C0.66 0 1.32 0 2 0 C2 2.64 2 5.28 2 8 C-0.31 8 -2.62 8 -5 8 C-5 6.68 -5 5.36 -5 4 C-4.0409375 3.8453125 -4.0409375 3.8453125 -3.0625 3.6875 C-2.381875 3.460625 -1.70125 3.23375 -1 3 C-0.67 2.01 -0.34 1.02 0 0 Z " fill="#D27C6F" transform="translate(79,53)"/>
<path d="M0 0 C0.33 0.66 0.66 1.32 1 2 C1.66 2 2.32 2 3 2 C3.625 3.875 3.625 3.875 4 6 C3.34 6.66 2.68 7.32 2 8 C2 7.34 2 6.68 2 6 C1.01 6 0.02 6 -1 6 C-1 6.66 -1 7.32 -1 8 C-1.99 7.67 -2.98 7.34 -4 7 C-3.67 5.35 -3.34 3.7 -3 2 C-2.01 2 -1.02 2 0 2 C0 1.34 0 0.68 0 0 Z " fill="#066542" transform="translate(92,130)"/>
<path d="M0 0 C0.66 0 1.32 0 2 0 C2 0.99 2 1.98 2 3 C2.99 3 3.98 3 5 3 C5 4.65 5 6.3 5 8 C4.34 8 3.68 8 3 8 C2.67 8.66 2.34 9.32 2 10 C1.34 9.67 0.68 9.34 0 9 C0 6.03 0 3.06 0 0 Z " fill="#F7D1A9" transform="translate(62,115)"/>
<path d="M0 0 C1.32 0 2.64 0 4 0 C3.67 1.32 3.34 2.64 3 4 C2.34 4 1.68 4 1 4 C1 9.61 1 15.22 1 21 C0.67 21 0.34 21 0 21 C0 17.37 0 13.74 0 10 C-0.66 10 -1.32 10 -2 10 C-2 9.34 -2 8.68 -2 8 C-1.34 8 -0.68 8 0 8 C0 5.36 0 2.72 0 0 Z " fill="#0A0808" transform="translate(68,103)"/>
<path d="M0 0 C1.65 0.33 3.3 0.66 5 1 C5 1.66 5 2.32 5 3 C4.34 3 3.68 3 3 3 C3 4.32 3 5.64 3 7 C1.68 7 0.36 7 -1 7 C-1 6.34 -1 5.68 -1 5 C-2.32 4.67 -3.64 4.34 -5 4 C-4.01 4 -3.02 4 -2 4 C-1.34 2.68 -0.68 1.36 0 0 Z " fill="#1B1615" transform="translate(67,54)"/>
<path d="M0 0 C0.33 0 0.66 0 1 0 C1 1.98 1 3.96 1 6 C0.67 5.34 0.34 4.68 0 4 C-0.99 4 -1.98 4 -3 4 C-3 5.32 -3 6.64 -3 8 C-3.99 8 -4.98 8 -6 8 C-6 7.01 -6 6.02 -6 5 C-6.66 5 -7.32 5 -8 5 C-8 4.34 -8 3.68 -8 3 C-6.35 2.34 -4.7 1.68 -3 1 C-3 1.66 -3 2.32 -3 3 C-2.01 3 -1.02 3 0 3 C0 2.01 0 1.02 0 0 Z " fill="#268138" transform="translate(136,137)"/>
<path d="M0 0 C0.33 0.66 0.66 1.32 1 2 C1.66 2.33 2.32 2.66 3 3 C2.34 3 1.68 3 1 3 C1 3.66 1 4.32 1 5 C0.34 5 -0.32 5 -1 5 C-1 5.66 -1 6.32 -1 7 C-2.32 7 -3.64 7 -5 7 C-5 6.34 -5 5.68 -5 5 C-5.66 5 -6.32 5 -7 5 C-7 5.66 -7 6.32 -7 7 C-7.66 6.67 -8.32 6.34 -9 6 C-8.67 5.34 -8.34 4.68 -8 4 C-6.35 4 -4.7 4 -3 4 C-3 3.34 -3 2.68 -3 2 C-2.01 1.34 -1.02 0.68 0 0 Z " fill="#91DAD9" transform="translate(51,123)"/>
<path d="M0 0 C0.33 0 0.66 0 1 0 C1 4.29 1 8.58 1 13 C-3 15 -3 15 -7 15 C-7 15.66 -7 16.32 -7 17 C-7.66 16.67 -8.32 16.34 -9 16 C-8.67 15.34 -8.34 14.68 -8 14 C-6.68 14 -5.36 14 -4 14 C-4 13.34 -4 12.68 -4 12 C-3.34 12 -2.68 12 -2 12 C-2 11.34 -2 10.68 -2 10 C-1.34 10 -0.68 10 0 10 C0 6.7 0 3.4 0 0 Z " fill="#39494B" transform="translate(128,105)"/>
<path d="M0 0 C0.66 0 1.32 0 2 0 C2 0.66 2 1.32 2 2 C2.66 2 3.32 2 4 2 C4 3.65 4 5.3 4 7 C3.34 7 2.68 7 2 7 C2 8.32 2 9.64 2 11 C1.34 11 0.68 11 0 11 C0 7.37 0 3.74 0 0 Z " fill="#EDDECB" transform="translate(83,113)"/>
<path d="M0 0 C0.598125 0.45375 1.19625 0.9075 1.8125 1.375 C3.50590652 2.63295913 5.24477086 3.82984724 7 5 C6.01 5 5.02 5 4 5 C4 6.32 4 7.64 4 9 C2.68 9 1.36 9 0 9 C0 6.03 0 3.06 0 0 Z " fill="#2C8134" transform="translate(14,132)"/>
<path d="M0 0 C0.99 0 1.98 0 3 0 C3 0.66 3 1.32 3 2 C3.66 2 4.32 2 5 2 C5 2.99 5 3.98 5 5 C4.34 5 3.68 5 3 5 C3 5.66 3 6.32 3 7 C2.34 7 1.68 7 1 7 C0.67 8.32 0.34 9.64 0 11 C0 7.37 0 3.74 0 0 Z " fill="#4D7075" transform="translate(46,44)"/>
<path d="M0 0 C-0.33 0.66 -0.66 1.32 -1 2 C-2.98 2 -4.96 2 -7 2 C-7 2.66 -7 3.32 -7 4 C-8.32 4 -9.64 4 -11 4 C-10.67 2.68 -10.34 1.36 -10 0 C-6.33694766 -0.74926071 -3.57644848 -1.2380014 0 0 Z " fill="#3B211A" transform="translate(103,105)"/>
<path d="M0 0 C0 1.98 0 3.96 0 6 C-1.98 6 -3.96 6 -6 6 C-6 4.68 -6 3.36 -6 2 C-2.25 0 -2.25 0 0 0 Z " fill="#E76739" transform="translate(91,103)"/>
<path d="M0 0 C0 0.66 0 1.32 0 2 C0.66 2 1.32 2 2 2 C2 3.32 2 4.64 2 6 C0.68 6 -0.64 6 -2 6 C-2 5.34 -2 4.68 -2 4 C-2.66 4 -3.32 4 -4 4 C-4.33 4.66 -4.66 5.32 -5 6 C-4.625 3.5625 -4.625 3.5625 -4 1 C-2 0 -2 0 0 0 Z " fill="#B3988E" transform="translate(70,82)"/>
<path d="M0 0 C0.93423645 3.01031744 1.04449911 3.86650268 0 7 C-2.98459129 8.95542188 -4.26414791 9 -8 9 C-8 8.01 -8 7.02 -8 6 C-6.02 6 -4.04 6 -2 6 C-2 4.68 -2 3.36 -2 2 C-1.34 2 -0.68 2 0 2 C0 1.34 0 0.68 0 0 Z " fill="#5B2D26" transform="translate(72,55)"/>
<path d="M0 0 C0.33 0 0.66 0 1 0 C1 1.65 1 3.3 1 5 C0.01 5.33 -0.98 5.66 -2 6 C-2 6.66 -2 7.32 -2 8 C-1.01 8.33 -0.02 8.66 1 9 C0.67 9.66 0.34 10.32 0 11 C-1.32 11 -2.64 11 -4 11 C-4 9.02 -4 7.04 -4 5 C-3.01 5 -2.02 5 -1 5 C-0.67 3.35 -0.34 1.7 0 0 Z " fill="#09683F" transform="translate(106,132)"/>
<path d="M0 0 C0.66 0 1.32 0 2 0 C4 3 4 3 4 6 C3.34 6 2.68 6 2 6 C2 5.34 2 4.68 2 4 C0.35 4.66 -1.3 5.32 -3 6 C-3.33 4.68 -3.66 3.36 -4 2 C-2.68 2 -1.36 2 0 2 C0 1.34 0 0.68 0 0 Z " fill="#88B667" transform="translate(131,134)"/>
<path d="M0 0 C1 3 1 3 1 5 C1.66 5 2.32 5 3 5 C3 5.66 3 6.32 3 7 C1.68 7 0.36 7 -1 7 C-1.33 7.99 -1.66 8.98 -2 10 C-2 8.35 -2 6.7 -2 5 C-2.66 5 -3.32 5 -4 5 C-4 3.68 -4 2.36 -4 1 C-2.68 0.67 -1.36 0.34 0 0 Z " fill="#197738" transform="translate(128,129)"/>
<path d="M0 0 C0.33 0 0.66 0 1 0 C1.22036864 3.85645121 0.60355101 6.49223216 -1 10 C-0.01 10 0.98 10 2 10 C2 10.66 2 11.32 2 12 C0.68 12 -0.64 12 -2 12 C-2.33 10.02 -2.66 8.04 -3 6 C-3.66 6 -4.32 6 -5 6 C-5 5.34 -5 4.68 -5 4 C-3.35 4 -1.7 4 0 4 C0 2.68 0 1.36 0 0 Z " fill="#438543" transform="translate(98,126)"/>
<path d="M0 0 C0 0.66 0 1.32 0 2 C-0.66 2 -1.32 2 -2 2 C-2 2.66 -2 3.32 -2 4 C-2.66 4 -3.32 4 -4 4 C-4 5.65 -4 7.3 -4 9 C-5.32 8.67 -6.64 8.34 -8 8 C-8 7.34 -8 6.68 -8 6 C-7.34 6 -6.68 6 -6 6 C-6 4.35 -6 2.7 -6 1 C-3.92446352 0.4465236 -2.15634036 0 0 0 Z " fill="#51787D" transform="translate(48,74)"/>
<path d="M0 0 C0.33 0.99 0.66 1.98 1 3 C1.66 3 2.32 3 3 3 C3.17942163 6.94727588 3.09350689 9.5980513 1 13 C0.34 13 -0.32 13 -1 13 C-0.34 10.03 0.32 7.06 1 4 C0.34 4 -0.32 4 -1 4 C-0.67 2.68 -0.34 1.36 0 0 Z " fill="#215979" transform="translate(40,42)"/>
<path d="M0 0 C1.65 0 3.3 0 5 0 C5 1.32 5 2.64 5 4 C4.01 4 3.02 4 2 4 C2 4.66 2 5.32 2 6 C0.35 6.33 -1.3 6.66 -3 7 C-3 6.34 -3 5.68 -3 5 C-2 4 -1 3 0 2 C0 1.34 0 0.68 0 0 Z " fill="#579C49" transform="translate(44,140)"/>
<path d="M0 0 C0.33 0.66 0.66 1.32 1 2 C0.34 2 -0.32 2 -1 2 C-1 3.65 -1 5.3 -1 7 C-0.34 7 0.32 7 1 7 C1 8.65 1 10.3 1 12 C0.01 12.33 -0.98 12.66 -2 13 C-3.34237288 4.05084746 -3.34237288 4.05084746 -2 1 C-1.34 0.67 -0.68 0.34 0 0 Z " fill="#328532" transform="translate(61,136)"/>
<path d="M0 0 C1.98 0.495 1.98 0.495 4 1 C4 4.76687864 3.76462683 5.91190305 2 9 C2 7.68 2 6.36 2 5 C1.01 5 0.02 5 -1 5 C-0.67 3.35 -0.34 1.7 0 0 Z " fill="#8FBA6B" transform="translate(53,132)"/>
<path d="M0 0 C0.66 0 1.32 0 2 0 C2.33 3.63 2.66 7.26 3 11 C2.01 10.67 1.02 10.34 0 10 C0 8.35 0 6.7 0 5 C-0.66 5 -1.32 5 -2 5 C-1 2 -1 2 0 0 Z " fill="#8AB66B" transform="translate(139,126)"/>
<path d="M0 0 C3.96 0.33 7.92 0.66 12 1 C11.01 1.33 10.02 1.66 9 2 C9 2.66 9 3.32 9 4 C6.03 3.67 3.06 3.34 0 3 C0 2.01 0 1.02 0 0 Z " fill="#322B26" transform="translate(73,94)"/>
<path d="M0 0 C0.33 0.99 0.66 1.98 1 3 C-0.98 3.66 -2.96 4.32 -5 5 C-5 4.34 -5 3.68 -5 3 C-5.66 2.67 -6.32 2.34 -7 2 C-7 1.34 -7 0.68 -7 0 C-4.3333581 -1.33332095 -2.83319697 -0.67102033 0 0 Z " fill="#619F63" transform="translate(111,138)"/>
<path d="M0 0 C2.97 0.495 2.97 0.495 6 1 C6 2.65 6 4.3 6 6 C4.35 6 2.7 6 1 6 C0.67 4.02 0.34 2.04 0 0 Z " fill="#3F8E3B" transform="translate(141,130)"/>
<path d="M0 0 C1.98 0.495 1.98 0.495 4 1 C4 2.32 4 3.64 4 5 C2.68 5 1.36 5 0 5 C0 7.31 0 9.62 0 12 C-0.33 12 -0.66 12 -1 12 C-1.02712066 10.56260487 -1.04645067 9.12506137 -1.0625 7.6875 C-1.07410156 6.88699219 -1.08570312 6.08648437 -1.09765625 5.26171875 C-1 3 -1 3 0 0 Z " fill="#E4A166" transform="translate(70,114)"/>
<path d="M0 0 C0.66 0 1.32 0 2 0 C2 0.66 2 1.32 2 2 C2.66 2 3.32 2 4 2 C4 3.98 4 5.96 4 8 C3.01 8 2.02 8 1 8 C0.26919734 6.02253397 -0.39421747 4.01927511 -1 2 C-0.67 1.34 -0.34 0.68 0 0 Z " fill="#9E3B2C" transform="translate(124,120)"/>
<path d="M0 0 C0.66 0 1.32 0 2 0 C2 0.66 2 1.32 2 2 C2.66 2 3.32 2 4 2 C4 3.98 4 5.96 4 8 C3.34 8 2.68 8 2 8 C2 7.34 2 6.68 2 6 C1.34 6 0.68 6 0 6 C-0.38218767 4.34385343 -0.71395102 2.67542976 -1 1 C-0.67 0.67 -0.34 0.34 0 0 Z " fill="#8BD3C7" transform="translate(145,122)"/>
<path d="M0 0 C0.66 0 1.32 0 2 0 C2 3.63 2 7.26 2 11 C1.34 11 0.68 11 0 11 C0 9.02 0 7.04 0 5 C-0.66 5 -1.32 5 -2 5 C-2 4.34 -2 3.68 -2 3 C-1.34 3 -0.68 3 0 3 C0 2.01 0 1.02 0 0 Z " fill="#1A1D1E" transform="translate(55,89)"/>
<path d="M0 0 C0.66 0 1.32 0 2 0 C1.67 1.65 1.34 3.3 1 5 C1.66 5 2.32 5 3 5 C3 5.99 3 6.98 3 8 C3.66 8 4.32 8 5 8 C5 8.66 5 9.32 5 10 C4.01 10 3.02 10 2 10 C2 9.34 2 8.68 2 8 C1.34 8 0.68 8 0 8 C-1.125 2.25 -1.125 2.25 0 0 Z " fill="#4C433E" transform="translate(59,76)"/>
<path d="M0 0 C1.32 0.33 2.64 0.66 4 1 C4 1.99 4 2.98 4 4 C3.34 4 2.68 4 2 4 C2 4.99 2 5.98 2 7 C0.02 7 -1.96 7 -4 7 C-2.68 6.67 -1.36 6.34 0 6 C0 4.02 0 2.04 0 0 Z " fill="#FAF3E3" transform="translate(70,120)"/>
<path d="M0 0 C0.99 0.33 1.98 0.66 3 1 C3 2.98 3 4.96 3 7 C2.01 7 1.02 7 0 7 C0 6.34 0 5.68 0 5 C-1.98 5.33 -3.96 5.66 -6 6 C-6 5.34 -6 4.68 -6 4 C-4.02 4 -2.04 4 0 4 C0 2.68 0 1.36 0 0 Z " fill="#42432E" transform="translate(95,121)"/>
<path d="M0 0 C0.33 0.99 0.66 1.98 1 3 C1.66 3 2.32 3 3 3 C3 3.66 3 4.32 3 5 C-0.63 5 -4.26 5 -8 5 C-4 2 -4 2 0 2 C0 1.34 0 0.68 0 0 Z " fill="#1B1614" transform="translate(81,89)"/>
<path d="M0 0 C0.66 0 1.32 0 2 0 C2 0.99 2 1.98 2 3 C2.99 3 3.98 3 5 3 C5 4.32 5 5.64 5 7 C3.35 7.33 1.7 7.66 0 8 C0 5.36 0 2.72 0 0 Z " fill="#418E30" transform="translate(128,127)"/>
<path d="M0 0 C1.65 0 3.3 0 5 0 C5 0.66 5 1.32 5 2 C4.34 2 3.68 2 3 2 C3.33 3.32 3.66 4.64 4 6 C3.34 6 2.68 6 2 6 C2 5.34 2 4.68 2 4 C0.68 4 -0.64 4 -2 4 C-2 3.34 -2 2.68 -2 2 C-1.34 2 -0.68 2 0 2 C0 1.34 0 0.68 0 0 Z " fill="#CAC2B7" transform="translate(59,126)"/>
<path d="M0 0 C0.99 0 1.98 0 3 0 C3 2.64 3 5.28 3 8 C2.01 8 1.02 8 0 8 C0 5.36 0 2.72 0 0 Z " fill="#AD9690" transform="translate(80,115)"/>
<path d="M0 0 C0.66 0 1.32 0 2 0 C2 0.66 2 1.32 2 2 C2.66 2 3.32 2 4 2 C4 3.32 4 4.64 4 6 C2.68 6 1.36 6 0 6 C0 5.34 0 4.68 0 4 C-0.66 4 -1.32 4 -2 4 C-2 3.34 -2 2.68 -2 2 C-1.34 2 -0.68 2 0 2 C0 1.34 0 0.68 0 0 Z " fill="#F0AE65" transform="translate(132,105)"/>
<path d="M0 0 C0.99 0 1.98 0 3 0 C3 0.66 3 1.32 3 2 C3.66 2 4.32 2 5 2 C5 2.66 5 3.32 5 4 C5.66 4 6.32 4 7 4 C7 4.66 7 5.32 7 6 C7.66 6 8.32 6 9 6 C9.33 6.99 9.66 7.98 10 9 C9.34 9 8.68 9 8 9 C8 8.34 8 7.68 8 7 C6.02 6.34 4.04 5.68 2 5 C2 3.68 2 2.36 2 1 C1.34 0.67 0.68 0.34 0 0 Z " fill="#555657" transform="translate(97,88)"/>
<path d="M0 0 C1.37562854 1.28965176 2.70766393 2.62689293 4 4 C4 4.66 4 5.32 4 6 C5.32 6.33 6.64 6.66 8 7 C8 7.33 8 7.66 8 8 C4.95613276 8.08226668 2.92824652 7.97608217 0 7 C0 4.69 0 2.38 0 0 Z " fill="#136D3E" transform="translate(99,141)"/>
<path d="M0 0 C0.33 0.66 0.66 1.32 1 2 C2.32 2 3.64 2 5 2 C5 2.66 5 3.32 5 4 C5.66 4.33 6.32 4.66 7 5 C6.01 5 5.02 5 4 5 C3.67 5.99 3.34 6.98 3 8 C3 7.34 3 6.68 3 6 C2.34 6 1.68 6 1 6 C0.67 4.02 0.34 2.04 0 0 Z " fill="#04633C" transform="translate(18,137)"/>
<path d="M0 0 C0.66 0 1.32 0 2 0 C2 0.66 2 1.32 2 2 C2.66 2 3.32 2 4 2 C4 2.66 4 3.32 4 4 C4.66 4.33 5.32 4.66 6 5 C5.01 5.495 5.01 5.495 4 6 C3.01 7.485 3.01 7.485 2 9 C1.67 8.01 1.34 7.02 1 6 C1.33 5.34 1.66 4.68 2 4 C1.34 4 0.68 4 0 4 C0 2.68 0 1.36 0 0 Z " fill="#0A4935" transform="translate(75,126)"/>
<path d="M0 0 C1.32 0 2.64 0 4 0 C3.1875 2.4375 3.1875 2.4375 2 5 C1.01 5.33 0.02 5.66 -1 6 C-1.33 4.68 -1.66 3.36 -2 2 C-1.34 2 -0.68 2 0 2 C0 1.34 0 0.68 0 0 Z " fill="#5DA549" transform="translate(52,126)"/>
<path d="M0 0 C0.66 0 1.32 0 2 0 C2.33 1.98 2.66 3.96 3 6 C1.35 6 -0.3 6 -2 6 C-1.125 1.125 -1.125 1.125 0 0 Z " fill="#86D1C0" transform="translate(27,124)"/>
<path d="M0 0 C0.66 0 1.32 0 2 0 C2 1.32 2 2.64 2 4 C1.34 4 0.68 4 0 4 C0.33 5.98 0.66 7.96 1 10 C0.01 9.67 -0.98 9.34 -2 9 C-1.67 7.35 -1.34 5.7 -1 4 C-1.99 3.67 -2.98 3.34 -4 3 C-3.01 2.67 -2.02 2.34 -1 2 C-0.67 1.34 -0.34 0.68 0 0 Z " fill="#B6D1CE" transform="translate(49,70)"/>
<path d="M0 0 C1.32 0.33 2.64 0.66 4 1 C4 1.66 4 2.32 4 3 C3.34 3 2.68 3 2 3 C2 3.99 2 4.98 2 6 C0.68 6 -0.64 6 -2 6 C-2 5.01 -2 4.02 -2 3 C-1.34 3 -0.68 3 0 3 C0 2.01 0 1.02 0 0 Z " fill="#529E29" transform="translate(62,135)"/>
<path d="M0 0 C2.97 0.495 2.97 0.495 6 1 C6 2.98 6 4.96 6 7 C4.68 6.67 3.36 6.34 2 6 C2.66 6 3.32 6 4 6 C4 5.34 4 4.68 4 4 C3.34 4 2.68 4 2 4 C2 3.34 2 2.68 2 2 C1.34 2 0.68 2 0 2 C0 1.34 0 0.68 0 0 Z " fill="#0F6F3F" transform="translate(62,132)"/>
<path d="M0 0 C0.66 0.33 1.32 0.66 2 1 C1.67 4.3 1.34 7.6 1 11 C0.67 11 0.34 11 0 11 C0 9.02 0 7.04 0 5 C-0.66 5 -1.32 5 -2 5 C-2 4.01 -2 3.02 -2 2 C-1.34 2 -0.68 2 0 2 C0 1.34 0 0.68 0 0 Z " fill="#BA5D3D" transform="translate(76,115)"/>
<path d="M0 0 C2.9375 0.8125 2.9375 0.8125 6 2 C6.33 2.99 6.66 3.98 7 5 C5.35 5.33 3.7 5.66 2 6 C2 4.68 2 3.36 2 2 C1.34 2 0.68 2 0 2 C0 1.34 0 0.68 0 0 Z " fill="#E2A870" transform="translate(57,68)"/>
<path d="M0 0 C0.66 0 1.32 0 2 0 C2 2.97 2 5.94 2 9 C1.34 9 0.68 9 0 9 C-0.66 7.02 -1.32 5.04 -2 3 C-1.01 3 -0.02 3 1 3 C0.67 2.01 0.34 1.02 0 0 Z " fill="#49962E" transform="translate(39,136)"/>
<path d="M0 0 C1.65 0.33 3.3 0.66 5 1 C5.33 1.99 5.66 2.98 6 4 C5.34 4 4.68 4 4 4 C4 3.34 4 2.68 4 2 C3.34 2 2.68 2 2 2 C2 2.66 2 3.32 2 4 C0.68 4 -0.64 4 -2 4 C-2 3.34 -2 2.68 -2 2 C-1.34 2 -0.68 2 0 2 C0 1.34 0 0.68 0 0 Z " fill="#DDDECD" transform="translate(85,126)"/>
<path d="M0 0 C2.97 0.495 2.97 0.495 6 1 C5.01 1.495 5.01 1.495 4 2 C3.34786708 4.02463255 3.34786708 4.02463255 3 6 C2.34 6 1.68 6 1 6 C0.67 4.02 0.34 2.04 0 0 Z " fill="#95DCDF" transform="translate(8,122)"/>
<path d="M0 0 C1.32 0 2.64 0 4 0 C4 0.66 4 1.32 4 2 C3.34 2 2.68 2 2 2 C2 2.66 2 3.32 2 4 C2.66 4.33 3.32 4.66 4 5 C3.01 5 2.02 5 1 5 C0.67 6.32 0.34 7.64 0 9 C-1.125 2.25 -1.125 2.25 0 0 Z " fill="#211D19" transform="translate(107,113)"/>
<path d="M0 0 C0.99 0 1.98 0 3 0 C3.66 3.3 4.32 6.6 5 10 C4.34 10 3.68 10 3 10 C3 8.02 3 6.04 3 4 C2.01 4 1.02 4 0 4 C0 2.68 0 1.36 0 0 Z " fill="#2E2821" transform="translate(126,101)"/>
<path d="M0 0 C0.66 0 1.32 0 2 0 C2 0.66 2 1.32 2 2 C2.66 2 3.32 2 4 2 C4.33 1.34 4.66 0.68 5 0 C4.67 1.65 4.34 3.3 4 5 C2.68 5 1.36 5 0 5 C0 4.34 0 3.68 0 3 C-0.66 2.67 -1.32 2.34 -2 2 C-1.34 2 -0.68 2 0 2 C0 1.34 0 0.68 0 0 Z " fill="#CB4B32" transform="translate(98,95)"/>
<path d="M0 0 C0.66 0 1.32 0 2 0 C2 0.66 2 1.32 2 2 C2.66 2 3.32 2 4 2 C4 2.99 4 3.98 4 5 C2.02 4.34 0.04 3.68 -2 3 C-2 3.66 -2 4.32 -2 5 C-2.99 4.67 -3.98 4.34 -5 4 C-4.34 4 -3.68 4 -3 4 C-3 3.34 -3 2.68 -3 2 C-2.01 2 -1.02 2 0 2 C0 1.34 0 0.68 0 0 Z " fill="#F1E2CD" transform="translate(66,86)"/>
<path d="M0 0 C0.33 0.66 0.66 1.32 1 2 C1.99 2 2.98 2 4 2 C4 2.66 4 3.32 4 4 C3.01 4 2.02 4 1 4 C1 4.66 1 5.32 1 6 C-0.32 5.67 -1.64 5.34 -3 5 C-3 4.01 -3 3.02 -3 2 C-2.01 2 -1.02 2 0 2 C0 1.34 0 0.68 0 0 Z " fill="#2B1A13" transform="translate(62,64)"/>
<path d="M0 0 C0.66 0 1.32 0 2 0 C2.33 2.31 2.66 4.62 3 7 C1.68 7 0.36 7 -1 7 C-0.67 4.69 -0.34 2.38 0 0 Z " fill="#8BB475" transform="translate(79,139)"/>
<path d="M0 0 C0.66 0 1.32 0 2 0 C2 0.99 2 1.98 2 3 C3.32 3.33 4.64 3.66 6 4 C3.29120665 5.35439668 0.99066732 5.06501451 -2 5 C-2 4.34 -2 3.68 -2 3 C-1.34 3 -0.68 3 0 3 C0 2.01 0 1.02 0 0 Z " fill="#9F8F7F" transform="translate(85,121)"/>
<path d="M0 0 C0.66 0 1.32 0 2 0 C2 2.31 2 4.62 2 7 C1.34 7 0.68 7 0 7 C-0.33 8.32 -0.66 9.64 -1 11 C-1.02688151 9.35425434 -1.04634123 7.70838587 -1.0625 6.0625 C-1.07410156 5.14597656 -1.08570312 4.22945313 -1.09765625 3.28515625 C-1 1 -1 1 0 0 Z " fill="#371714" transform="translate(78,115)"/>
<path d="M0 0 C0.33 0 0.66 0 1 0 C1 2.64 1 5.28 1 8 C0.01 8.495 0.01 8.495 -1 9 C-1.66 8.67 -2.32 8.34 -3 8 C-3 7.34 -3 6.68 -3 6 C-2.34 6 -1.68 6 -1 6 C-1.33 4.68 -1.66 3.36 -2 2 C-1.34 2 -0.68 2 0 2 C0 1.34 0 0.68 0 0 Z " fill="#17120F" transform="translate(110,103)"/>
<path d="M0 0 C0.61875 0.66 1.2375 1.32 1.875 2 C3.75637427 4.2284549 3.75637427 4.2284549 6 4 C5.34 5.32 4.68 6.64 4 8 C4 7.34 4 6.68 4 6 C3.34 6 2.68 6 2 6 C2 5.34 2 4.68 2 4 C0.68 3.67 -0.64 3.34 -2 3 C-1.34 3 -0.68 3 0 3 C0 2.01 0 1.02 0 0 Z " fill="#BFADA1" transform="translate(57,97)"/>
<path d="M0 0 C0.99 0 1.98 0 3 0 C2.67 1.98 2.34 3.96 2 6 C0.35 6 -1.3 6 -3 6 C-3 5.34 -3 4.68 -3 4 C-2.01 4 -1.02 4 0 4 C0 2.68 0 1.36 0 0 Z " fill="#0A324D" transform="translate(37,51)"/>
<path d="M0 0 C0.66 0 1.32 0 2 0 C2 2.97 2 5.94 2 9 C1.01 9 0.02 9 -1 9 C-1 8.01 -1 7.02 -1 6 C-0.34 6 0.32 6 1 6 C0.67 4.02 0.34 2.04 0 0 Z " fill="#4E992B" transform="translate(4,134)"/>
<path d="M0 0 C2.31 0 4.62 0 7 0 C6.01 0.495 6.01 0.495 5 1 C5 1.66 5 2.32 5 3 C4.34 3 3.68 3 3 3 C3 3.99 3 4.98 3 6 C2.34 6 1.68 6 1 6 C1.33 4.35 1.66 2.7 2 1 C1.34 0.67 0.68 0.34 0 0 Z " fill="#4D9B2A" transform="translate(73,135)"/>
<path d="M0 0 C0.66 0 1.32 0 2 0 C2 0.66 2 1.32 2 2 C3.32 2 4.64 2 6 2 C5.67 3.32 5.34 4.64 5 6 C4.01 6 3.02 6 2 6 C1.34 4.02 0.68 2.04 0 0 Z " fill="#2E714B" transform="translate(55,128)"/>
<path d="M0 0 C0.66 0 1.32 0 2 0 C2.33 4.29 2.66 8.58 3 13 C2.01 13 1.02 13 0 13 C0 8.71 0 4.42 0 0 Z " fill="#70473E" transform="translate(66,113)"/>
<path d="M0 0 C1.32 0 2.64 0 4 0 C4 1.32 4 2.64 4 4 C3.01 4 2.02 4 1 4 C0.67 4.66 0.34 5.32 0 6 C-1.125 2.25 -1.125 2.25 0 0 Z " fill="#A43C2D" transform="translate(103,103)"/>
<path d="M0 0 C0.66 0 1.32 0 2 0 C3.42944945 2.35438733 4.08661261 3.48032433 3.625 6.25 C3.41875 6.8275 3.2125 7.405 3 8 C2.34 6.68 1.68 5.36 1 4 C-0.32 4 -1.64 4 -3 4 C-3 3.34 -3 2.68 -3 2 C-2.01 2 -1.02 2 0 2 C0 1.34 0 0.68 0 0 Z " fill="#983929" transform="translate(81,76)"/>
<path d="M0 0 C0.33 0 0.66 0 1 0 C1 1.98 1 3.96 1 6 C1.66 6 2.32 6 3 6 C3 7.98 3 9.96 3 12 C2.67 11.01 2.34 10.02 2 9 C1.34 9 0.68 9 0 9 C0 6.03 0 3.06 0 0 Z " fill="#589E2B" transform="translate(115,134)"/>
<path d="M0 0 C0.99 0 1.98 0 3 0 C3.22174933 1.45635371 3.42698698 2.91522956 3.625 4.375 C3.74101562 5.18710938 3.85703125 5.99921875 3.9765625 6.8359375 C3.98429688 7.55007812 3.99203125 8.26421875 4 9 C3.34 9.66 2.68 10.32 2 11 C1.34 7.37 0.68 3.74 0 0 Z " fill="#237C3F" transform="translate(10,134)"/>
<path d="M0 0 C1.9375 0.3125 1.9375 0.3125 4 1 C4.33 1.99 4.66 2.98 5 4 C3.02 4.33 1.04 4.66 -1 5 C-0.67 3.35 -0.34 1.7 0 0 Z " fill="#247B37" transform="translate(35,135)"/>
<path d="M0 0 C-0.33 0.66 -0.66 1.32 -1 2 C-1.99 1.67 -2.98 1.34 -4 1 C-4 1.66 -4 2.32 -4 3 C-5.32 3 -6.64 3 -8 3 C-8 2.01 -8 1.02 -8 0 C-4.71303767 -0.79953138 -3.28976808 -1.09658936 0 0 Z " fill="#3D8632" transform="translate(57,131)"/>
<path d="M0 0 C0.66 0 1.32 0 2 0 C1.67 1.32 1.34 2.64 1 4 C1.66 4 2.32 4 3 4 C2.67 5.32 2.34 6.64 2 8 C2 7.34 2 6.68 2 6 C0.68 6 -0.64 6 -2 6 C-2 5.34 -2 4.68 -2 4 C-1.34 4 -0.68 4 0 4 C0 2.68 0 1.36 0 0 Z " fill="#983D27" transform="translate(91,105)"/>
<path d="M0 0 C1.65 0 3.3 0 5 0 C5.33 1.32 5.66 2.64 6 4 C4.68 4 3.36 4 2 4 C2 3.34 2 2.68 2 2 C1.34 2 0.68 2 0 2 C0 1.34 0 0.68 0 0 Z " fill="#0E0D0C" transform="translate(74,105)"/>
<path d="M0 0 C0 0.99 0 1.98 0 3 C-0.66 3 -1.32 3 -2 3 C-2 4.32 -2 5.64 -2 7 C-2.66 7 -3.32 7 -4 7 C-4 5.02 -4 3.04 -4 1 C-2 0 -2 0 0 0 Z " fill="#813224" transform="translate(87,102)"/>
<path d="M0 0 C1.32 0 2.64 0 4 0 C4.33 0.99 4.66 1.98 5 3 C2.69 3.33 0.38 3.66 -2 4 C-2 3.34 -2 2.68 -2 2 C-1.34 2 -0.68 2 0 2 C0 1.34 0 0.68 0 0 Z " fill="#181511" transform="translate(98,101)"/>
<path d="M0 0 C1.32 0 2.64 0 4 0 C4 1.32 4 2.64 4 4 C2.68 4.33 1.36 4.66 0 5 C0 3.35 0 1.7 0 0 Z " fill="#BC422E" transform="translate(87,99)"/>
<path d="M0 0 C0.99 0 1.98 0 3 0 C3 1.32 3 2.64 3 4 C1.68 4.33 0.36 4.66 -1 5 C-1.33 4.01 -1.66 3.02 -2 2 C-1.34 2 -0.68 2 0 2 C0 1.34 0 0.68 0 0 Z " fill="#E25D37" transform="translate(94,99)"/>
<path d="M0 0 C0.66 0 1.32 0 2 0 C2 1.98 2 3.96 2 6 C0.68 5.67 -0.64 5.34 -2 5 C-2 4.01 -2 3.02 -2 2 C-1.34 2 -0.68 2 0 2 C0 1.34 0 0.68 0 0 Z " fill="#EE9758" transform="translate(70,94)"/>
<path d="M0 0 C1.65 0 3.3 0 5 0 C5.33 0.66 5.66 1.32 6 2 C5.01 2.33 4.02 2.66 3 3 C2.67 3.66 2.34 4.32 2 5 C1.34 5 0.68 5 0 5 C0 3.35 0 1.7 0 0 Z " fill="#AA5233" transform="translate(121,92)"/>
<path d="M0 0 C0.66 0 1.32 0 2 0 C2 0.66 2 1.32 2 2 C2.66 2 3.32 2 4 2 C4 2.66 4 3.32 4 4 C4.66 4 5.32 4 6 4 C6 4.66 6 5.32 6 6 C4.02 5.34 2.04 4.68 0 4 C0 2.68 0 1.36 0 0 Z " fill="#F0EBE1" transform="translate(51,74)"/>
<path d="M0 0 C0.66 0 1.32 0 2 0 C2 1.98 2 3.96 2 6 C1.34 6 0.68 6 0 6 C0 5.01 0 4.02 0 3 C-1.65 3.33 -3.3 3.66 -5 4 C-5 3.01 -5 2.02 -5 1 C-2.525 1.495 -2.525 1.495 0 2 C0 1.34 0 0.68 0 0 Z " fill="#241F19" transform="translate(81,64)"/>
<path d="M0 0 C1.98 0 3.96 0 6 0 C5.67 1.65 5.34 3.3 5 5 C4.01 4.67 3.02 4.34 2 4 C2 3.01 2 2.02 2 1 C1.34 0.67 0.68 0.34 0 0 Z " fill="#428F5C" transform="translate(111,143)"/>
<path d="M0 0 C0.66 0 1.32 0 2 0 C2 1.98 2 3.96 2 6 C0.68 6 -0.64 6 -2 6 C-1.34 4.02 -0.68 2.04 0 0 Z " fill="#D9DBC8" transform="translate(99,128)"/>
<path d="M0 0 C-1.32 0.33 -2.64 0.66 -4 1 C-4 2.32 -4 3.64 -4 5 C-4.99 5 -5.98 5 -7 5 C-7 3.68 -7 2.36 -7 1 C-4.53721199 -0.231394 -2.7204945 -0.07159196 0 0 Z " fill="#93DCDC" transform="translate(137,125)"/>
<path d="M0 0 C0.66 0 1.32 0 2 0 C2 0.66 2 1.32 2 2 C2.99 2.33 3.98 2.66 5 3 C4.01 3 3.02 3 2 3 C2 3.66 2 4.32 2 5 C2.66 5.33 3.32 5.66 4 6 C2.68 6.33 1.36 6.66 0 7 C0 4.69 0 2.38 0 0 Z " fill="#393437" transform="translate(114,117)"/>
<path d="M0 0 C0.99 0 1.98 0 3 0 C3 0.99 3 1.98 3 3 C3.99 3 4.98 3 6 3 C5.67 4.32 5.34 5.64 5 7 C5 6.34 5 5.68 5 5 C3.68 5 2.36 5 1 5 C1.33 3.68 1.66 2.36 2 1 C1.34 0.67 0.68 0.34 0 0 Z " fill="#EACABB" transform="translate(61,100)"/>
<path d="M0 0 C0.66 0 1.32 0 2 0 C2 0.66 2 1.32 2 2 C2.99 2.33 3.98 2.66 5 3 C4 6 4 6 2 7 C2 5.68 2 4.36 2 3 C1.34 3 0.68 3 0 3 C0 2.01 0 1.02 0 0 Z " fill="#93D5DE" transform="translate(121,97)"/>
<path d="M0 0 C1.98 0 3.96 0 6 0 C6 1.32 6 2.64 6 4 C4.68 4 3.36 4 2 4 C2 3.01 2 2.02 2 1 C1.34 0.67 0.68 0.34 0 0 Z " fill="#E3AF6B" transform="translate(128,97)"/>
<path d="M0 0 C1.65 0 3.3 0 5 0 C5.33 1.32 5.66 2.64 6 4 C4.68 4 3.36 4 2 4 C2 3.34 2 2.68 2 2 C1.34 2 0.68 2 0 2 C0 1.34 0 0.68 0 0 Z " fill="#EB7D46" transform="translate(74,86)"/>
<path d="M0 0 C2.97 0 5.94 0 9 0 C9 0.33 9 0.66 9 1 C7.35 1 5.7 1 4 1 C4 1.66 4 2.32 4 3 C2.68 3 1.36 3 0 3 C0 2.01 0 1.02 0 0 Z " fill="#47686B" transform="translate(40,71)"/>
<path d="M0 0 C2.97 0.495 2.97 0.495 6 1 C5.67 2.65 5.34 4.3 5 6 C4.67 5.34 4.34 4.68 4 4 C3.34 4 2.68 4 2 4 C2 3.34 2 2.68 2 2 C1.34 2 0.68 2 0 2 C0 1.34 0 0.68 0 0 Z " fill="#3D211B" transform="translate(66,68)"/>
<path d="M0 0 C0.66 1.32 1.32 2.64 2 4 C1.01 4.495 1.01 4.495 0 5 C0 5.66 0 6.32 0 7 C-1.65 7 -3.3 7 -5 7 C-4.34 6.01 -3.68 5.02 -3 4 C-2.34 4 -1.68 4 -1 4 C-0.67 2.68 -0.34 1.36 0 0 Z " fill="#9FE8F4" transform="translate(49,62)"/>
</svg>
